<?xml version="1.0" encoding="UTF-8"?>
<!DOCTYPE svg PUBLIC "-//W3C//DTD SVG 1.1//EN" "http://www.w3.org/Graphics/SVG/1.1/DTD/svg11.dtd">
<svg xmlns="http://www.w3.org/2000/svg" version="1.1" width="500px" height="500px" style="shape-rendering:geometricPrecision; text-rendering:geometricPrecision; image-rendering:optimizeQuality; fill-rule:evenodd; clip-rule:evenodd" xmlns:xlink="http://www.w3.org/1999/xlink">
<g><path style="opacity:0.215" fill="#190434" d="M 236.5,92.5 C 252.859,92.0168 266.192,98.0168 276.5,110.5C 276.5,111.167 276.5,111.833 276.5,112.5C 276.167,112.5 275.833,112.5 275.5,112.5C 273.431,109.427 270.764,107.094 267.5,105.5C 259.615,98.5159 250.282,95.1825 239.5,95.5C 234.36,94.5119 229.026,94.1786 223.5,94.5C 224.261,93.6091 225.261,92.9424 226.5,92.5C 229.967,93.7883 233.3,93.7883 236.5,92.5 Z"/></g>
<g><path style="opacity:0.959" fill="#694584" d="M 223.5,94.5 C 229.026,94.1786 234.36,94.5119 239.5,95.5C 236.615,95.1936 233.948,95.5269 231.5,96.5C 226.968,96.8182 222.634,96.4849 218.5,95.5C 220.415,95.7845 222.081,95.4511 223.5,94.5 Z"/></g>
<g><path style="opacity:0.996" fill="#150532" d="M 218.5,95.5 C 222.634,96.4849 226.968,96.8182 231.5,96.5C 241.687,97.2824 251.021,100.282 259.5,105.5C 256.978,105.122 254.645,104.289 252.5,103C 248.967,102.097 245.633,102.43 242.5,104C 246.041,104.665 248.708,106.498 250.5,109.5C 248.833,108.833 247.167,108.167 245.5,107.5C 245.167,107.5 244.833,107.5 244.5,107.5C 240.107,105.565 235.441,104.232 230.5,103.5C 230.5,103.167 230.5,102.833 230.5,102.5C 233.722,102.892 236.722,102.392 239.5,101C 231.114,98.0974 222.447,96.7641 213.5,97C 215.247,96.6481 216.914,96.1481 218.5,95.5 Z"/></g>
<g><path style="opacity:0.996" fill="#8a37a9" d="M 231.5,96.5 C 233.948,95.5269 236.615,95.1936 239.5,95.5C 250.282,95.1825 259.615,98.5159 267.5,105.5C 267.38,106.586 266.713,107.253 265.5,107.5C 263.484,106.822 261.484,106.156 259.5,105.5C 251.021,100.282 241.687,97.2824 231.5,96.5 Z"/></g>
<g><path style="opacity:0.265" fill="#07031d" d="M 236.5,92.5 C 233.3,93.7883 229.967,93.7883 226.5,92.5C 225.261,92.9424 224.261,93.6091 223.5,94.5C 222.081,95.4511 220.415,95.7845 218.5,95.5C 216.914,96.1481 215.247,96.6481 213.5,97C 222.447,96.7641 231.114,98.0974 239.5,101C 236.722,102.392 233.722,102.892 230.5,102.5C 222.16,102.334 213.827,102.5 205.5,103C 199.456,105.588 193.456,107.255 187.5,108C 186.023,110.148 184.023,111.482 181.5,112C 180.748,112.671 180.414,113.504 180.5,114.5C 180.167,114.5 179.833,114.5 179.5,114.5C 178.609,113.89 177.609,113.557 176.5,113.5C 182.37,107.139 189.036,101.639 196.5,97C 209.539,92.547 222.873,91.047 236.5,92.5 Z"/></g>
<g><path style="opacity:0.716" fill="#1e033d" d="M 230.5,102.5 C 230.5,102.833 230.5,103.167 230.5,103.5C 223.978,103.177 217.645,103.51 211.5,104.5C 200.504,105.832 190.171,109.166 180.5,114.5C 180.414,113.504 180.748,112.671 181.5,112C 184.023,111.482 186.023,110.148 187.5,108C 193.456,107.255 199.456,105.588 205.5,103C 213.827,102.5 222.16,102.334 230.5,102.5 Z"/></g>
<g><path style="opacity:0.996" fill="#64288f" d="M 211.5,104.5 C 217.645,103.51 223.978,103.177 230.5,103.5C 235.441,104.232 240.107,105.565 244.5,107.5C 237.825,106.893 231.158,106.227 224.5,105.5C 221.5,105.5 218.5,105.5 215.5,105.5C 214.432,104.566 213.099,104.232 211.5,104.5 Z"/></g>
<g><path style="opacity:0.992" fill="#8637a7" d="M 211.5,104.5 C 213.099,104.232 214.432,104.566 215.5,105.5C 207.66,106.762 199.993,108.596 192.5,111C 188.654,112.086 185.32,113.919 182.5,116.5C 178.914,117.557 175.914,119.557 173.5,122.5C 170.269,124.22 167.436,126.553 165,129.5C 161.88,133.759 159.046,138.093 156.5,142.5C 157.903,137.259 160.403,132.592 164,128.5C 168.765,123.228 173.931,118.561 179.5,114.5C 179.833,114.5 180.167,114.5 180.5,114.5C 190.171,109.166 200.504,105.832 211.5,104.5 Z"/></g>
<g><path style="opacity:0.996" fill="#0a0323" d="M 259.5,105.5 C 262.5,107.5 265.5,109.5 268.5,111.5C 269.833,113.167 271.167,114.833 272.5,116.5C 273.98,120.984 276.314,124.984 279.5,128.5C 278.995,129.919 277.995,130.585 276.5,130.5C 272.445,124.445 267.445,119.445 261.5,115.5C 258.873,111.685 255.206,109.685 250.5,109.5C 248.708,106.498 246.041,104.665 242.5,104C 245.633,102.43 248.967,102.097 252.5,103C 254.645,104.289 256.978,105.122 259.5,105.5 Z"/></g>
<g><path style="opacity:0.986" fill="#622988" d="M 259.5,105.5 C 261.484,106.156 263.484,106.822 265.5,107.5C 266.713,107.253 267.38,106.586 267.5,105.5C 270.764,107.094 273.431,109.427 275.5,112.5C 275.719,113.675 275.386,114.675 274.5,115.5C 272.736,113.722 270.736,112.389 268.5,111.5C 265.5,109.5 262.5,107.5 259.5,105.5 Z"/></g>
<g><path style="opacity:0.996" fill="#1f0549" d="M 250.5,109.5 C 255.206,109.685 258.873,111.685 261.5,115.5C 257.809,113.459 254.142,111.459 250.5,109.5 Z"/></g>
<g><path style="opacity:0.031" fill="#08001a" d="M 276.5,110.5 C 278.543,111.579 279.876,113.246 280.5,115.5C 278.97,114.789 277.637,113.789 276.5,112.5C 276.5,111.833 276.5,111.167 276.5,110.5 Z"/></g>
<g><path style="opacity:0.122" fill="#1c0334" d="M 176.5,113.5 C 177.609,113.557 178.609,113.89 179.5,114.5C 173.931,118.561 168.765,123.228 164,128.5C 160.403,132.592 157.903,137.259 156.5,142.5C 152.426,150.212 150.259,158.545 150,167.5C 149.506,176.221 150.006,184.888 151.5,193.5C 149.679,186.933 148.346,180.266 147.5,173.5C 147.018,148.467 156.685,128.467 176.5,113.5 Z"/></g>
<g><path style="opacity:0.996" fill="#9a2bbd" d="M 224.5,145.5 C 223.833,145.5 223.5,145.167 223.5,144.5C 224.708,143.766 226.041,143.433 227.5,143.5C 227.829,139.104 226.496,135.437 223.5,132.5C 225.335,131.572 225.668,130.406 224.5,129C 218.881,127.619 213.214,126.452 207.5,125.5C 206.286,123.931 204.619,123.098 202.5,123C 203.654,122.086 203.487,121.253 202,120.5C 196.628,121.14 191.461,122.473 186.5,124.5C 185.5,124.167 184.5,123.833 183.5,123.5C 182.359,122.575 182.359,121.741 183.5,121C 185.897,119.282 188.564,118.115 191.5,117.5C 191.121,115.787 190.121,114.787 188.5,114.5C 191.241,113.917 193.908,112.917 196.5,111.5C 204.558,115.815 213.225,117.648 222.5,117C 224.649,118.164 226.815,119.33 229,120.5C 229.333,120.167 229.667,119.833 230,119.5C 230.854,122.407 230.021,124.74 227.5,126.5C 233.562,128.777 236.229,133.277 235.5,140C 235.248,142.394 234.248,144.394 232.5,146C 233.448,146.483 234.448,146.649 235.5,146.5C 235.33,147.822 235.663,148.989 236.5,150C 236,150.167 235.5,150.333 235,150.5C 232.885,148.398 230.719,146.398 228.5,144.5C 227.264,145.246 225.93,145.579 224.5,145.5 Z"/></g>
<g><path style="opacity:0.996" fill="#8826b3" d="M 215.5,105.5 C 218.5,105.5 221.5,105.5 224.5,105.5C 225.398,106.158 226.398,106.824 227.5,107.5C 225.954,108.684 224.287,109.684 222.5,110.5C 223.04,111.748 223.707,112.915 224.5,114C 231.099,116.145 237.765,117.978 244.5,119.5C 244.971,120.901 245.638,122.234 246.5,123.5C 248.064,122.814 249.731,122.981 251.5,124C 248.999,125.418 249.332,126.418 252.5,127C 251.24,128.113 250.073,128.28 249,127.5C 246.038,133.062 246.872,138.229 251.5,143C 251.542,147.299 251.375,151.799 251,156.5C 250.581,157.672 249.915,158.672 249,159.5C 248.667,163.833 248.333,168.167 248,172.5C 246.004,165.829 242.504,160.162 237.5,155.5C 235.797,152.808 233.464,150.808 230.5,149.5C 229.614,148.675 229.281,147.675 229.5,146.5C 227.585,146.784 225.919,146.451 224.5,145.5C 225.93,145.579 227.264,145.246 228.5,144.5C 230.719,146.398 232.885,148.398 235,150.5C 235.5,150.333 236,150.167 236.5,150C 235.663,148.989 235.33,147.822 235.5,146.5C 234.448,146.649 233.448,146.483 232.5,146C 234.248,144.394 235.248,142.394 235.5,140C 236.229,133.277 233.562,128.777 227.5,126.5C 230.021,124.74 230.854,122.407 230,119.5C 229.667,119.833 229.333,120.167 229,120.5C 226.815,119.33 224.649,118.164 222.5,117C 213.225,117.648 204.558,115.815 196.5,111.5C 193.908,112.917 191.241,113.917 188.5,114.5C 186.5,115.167 184.5,115.833 182.5,116.5C 185.32,113.919 188.654,112.086 192.5,111C 199.993,108.596 207.66,106.762 215.5,105.5 Z"/></g>
<g><path style="opacity:0.984" fill="#290f55" d="M 268.5,111.5 C 270.736,112.389 272.736,113.722 274.5,115.5C 275.386,114.675 275.719,113.675 275.5,112.5C 275.833,112.5 276.167,112.5 276.5,112.5C 277.637,113.789 278.97,114.789 280.5,115.5C 281.159,119.365 282.159,123.199 283.5,127C 283.167,127.833 282.833,128.667 282.5,129.5C 279.123,125.132 275.789,120.799 272.5,116.5C 271.167,114.833 269.833,113.167 268.5,111.5 Z"/></g>
<g><path style="opacity:0.996" fill="#a832c5" d="M 188.5,114.5 C 190.121,114.787 191.121,115.787 191.5,117.5C 188.564,118.115 185.897,119.282 183.5,121C 182.359,121.741 182.359,122.575 183.5,123.5C 184.5,123.833 185.5,124.167 186.5,124.5C 191.461,122.473 196.628,121.14 202,120.5C 203.487,121.253 203.654,122.086 202.5,123C 204.619,123.098 206.286,123.931 207.5,125.5C 213.214,126.452 218.881,127.619 224.5,129C 225.668,130.406 225.335,131.572 223.5,132.5C 226.496,135.437 227.829,139.104 227.5,143.5C 226.041,143.433 224.708,143.766 223.5,144.5C 219.06,142.969 214.394,142.302 209.5,142.5C 205.982,142.502 202.649,142.835 199.5,143.5C 195.714,143.32 192.381,144.32 189.5,146.5C 188.833,146.5 188.167,146.5 187.5,146.5C 183.389,147.753 179.723,149.753 176.5,152.5C 173.55,154.115 170.884,156.115 168.5,158.5C 171.764,152.534 176.764,148.534 183.5,146.5C 183.833,145.833 184.167,145.167 184.5,144.5C 190.628,142.218 196.961,140.718 203.5,140C 203.833,139.667 204.167,139.333 204.5,139C 203.167,138.667 201.833,138.333 200.5,138C 202.833,137.667 205.167,137.333 207.5,137C 207.296,134.379 207.296,131.545 207.5,128.5C 204.728,128.22 202.228,128.887 200,130.5C 199.586,130.043 199.086,129.709 198.5,129.5C 193.28,131.871 187.947,134.038 182.5,136C 179.006,139.324 175.339,142.491 171.5,145.5C 171.167,145.167 170.833,144.833 170.5,144.5C 172.129,140.236 174.129,136.236 176.5,132.5C 177.931,132.023 179.264,131.357 180.5,130.5C 179.406,128.164 178.073,128.164 176.5,130.5C 174.705,128.297 172.371,127.131 169.5,127C 171.041,125.629 172.375,124.129 173.5,122.5C 175.914,119.557 178.914,117.557 182.5,116.5C 184.5,115.833 186.5,115.167 188.5,114.5 Z"/></g>
<g><path style="opacity:0.996" fill="#60189c" d="M 224.5,105.5 C 231.158,106.227 237.825,106.893 244.5,107.5C 244.833,107.5 245.167,107.5 245.5,107.5C 247.734,110.298 250.734,112.131 254.5,113C 255.907,116.607 258.574,118.607 262.5,119C 264.4,123.735 267.733,126.901 272.5,128.5C 272.551,130.57 271.885,132.403 270.5,134C 270.899,135.981 271.899,137.481 273.5,138.5C 274.891,140.589 275.558,142.922 275.5,145.5C 274.963,149.829 274.463,154.162 274,158.5C 272.192,158.888 270.525,158.888 269,158.5C 267.233,169.71 265.066,180.71 262.5,191.5C 264.231,182.237 264.731,172.904 264,163.5C 262.23,155.403 259.396,147.736 255.5,140.5C 256.018,137.977 257.352,135.977 259.5,134.5C 258.187,132.482 258.853,131.315 261.5,131C 260.816,129.307 259.816,127.807 258.5,126.5C 254.057,123.612 249.39,121.278 244.5,119.5C 237.765,117.978 231.099,116.145 224.5,114C 223.707,112.915 223.04,111.748 222.5,110.5C 224.287,109.684 225.954,108.684 227.5,107.5C 226.398,106.824 225.398,106.158 224.5,105.5 Z"/></g>
<g><path style="opacity:0.996" fill="#451583" d="M 245.5,107.5 C 247.167,108.167 248.833,108.833 250.5,109.5C 254.142,111.459 257.809,113.459 261.5,115.5C 267.445,119.445 272.445,124.445 276.5,130.5C 278.746,134.564 280.412,138.898 281.5,143.5C 281.616,146.86 281.949,150.193 282.5,153.5C 281.883,153.389 281.383,153.056 281,152.5C 280.821,149.447 280.321,146.447 279.5,143.5C 277.904,141.136 276.738,138.47 276,135.5C 274.583,136.078 273.75,137.078 273.5,138.5C 271.899,137.481 270.899,135.981 270.5,134C 271.885,132.403 272.551,130.57 272.5,128.5C 267.733,126.901 264.4,123.735 262.5,119C 258.574,118.607 255.907,116.607 254.5,113C 250.734,112.131 247.734,110.298 245.5,107.5 Z"/></g>
<g><path style="opacity:0.996" fill="#b134c9" d="M 173.5,122.5 C 172.375,124.129 171.041,125.629 169.5,127C 172.371,127.131 174.705,128.297 176.5,130.5C 178.073,128.164 179.406,128.164 180.5,130.5C 179.264,131.357 177.931,132.023 176.5,132.5C 174.129,136.236 172.129,140.236 170.5,144.5C 170.833,144.833 171.167,145.167 171.5,145.5C 175.339,142.491 179.006,139.324 182.5,136C 187.947,134.038 193.28,131.871 198.5,129.5C 199.086,129.709 199.586,130.043 200,130.5C 202.228,128.887 204.728,128.22 207.5,128.5C 207.296,131.545 207.296,134.379 207.5,137C 205.167,137.333 202.833,137.667 200.5,138C 201.833,138.333 203.167,138.667 204.5,139C 204.167,139.333 203.833,139.667 203.5,140C 196.961,140.718 190.628,142.218 184.5,144.5C 184.167,145.167 183.833,145.833 183.5,146.5C 176.764,148.534 171.764,152.534 168.5,158.5C 166.05,160.629 164.383,163.296 163.5,166.5C 163.573,168.027 162.906,169.027 161.5,169.5C 158.829,171.773 157.495,174.773 157.5,178.5C 156.168,180.132 154.835,181.799 153.5,183.5C 152.335,173.851 152.168,164.184 153,154.5C 154.484,150.553 155.65,146.553 156.5,142.5C 159.046,138.093 161.88,133.759 165,129.5C 167.436,126.553 170.269,124.22 173.5,122.5 Z"/></g>
<g><path style="opacity:0.684" fill="#060221" d="M 284.5,123.5 C 287.473,129.085 289.473,135.085 290.5,141.5C 290.599,144.237 290.265,146.904 289.5,149.5C 288.022,149.762 286.689,149.429 285.5,148.5C 284.678,144.529 283.178,140.862 281,137.5C 279.219,129.59 280.885,128.59 286,134.5C 286.167,134 286.333,133.5 286.5,133C 285.434,129.906 284.768,126.74 284.5,123.5 Z"/></g>
<g><path style="opacity:0.006" fill="#000000" d="M 290.5,141.5 C 291.156,142.622 291.489,143.955 291.5,145.5C 290.355,153.967 289.355,162.301 288.5,170.5C 288.326,163.465 288.659,156.465 289.5,149.5C 290.265,146.904 290.599,144.237 290.5,141.5 Z"/></g>
<g><path style="opacity:0.986" fill="#3c1973" d="M 281.5,143.5 C 284.485,148.303 285.985,153.636 286,159.5C 286.892,165.754 286.392,171.754 284.5,177.5C 284.167,177.5 283.833,177.5 283.5,177.5C 283.469,172.644 283.802,167.811 284.5,163C 284.378,159.682 283.711,156.515 282.5,153.5C 281.949,150.193 281.616,146.86 281.5,143.5 Z"/></g>
<g><path style="opacity:0.776" fill="#311968" d="M 187.5,146.5 C 186.833,147.5 186.167,148.5 185.5,149.5C 183.046,150.227 180.713,151.227 178.5,152.5C 177.833,152.5 177.167,152.5 176.5,152.5C 179.723,149.753 183.389,147.753 187.5,146.5 Z"/></g>
<g><path style="opacity:0.996" fill="#7d23ac" d="M 244.5,119.5 C 249.39,121.278 254.057,123.612 258.5,126.5C 259.816,127.807 260.816,129.307 261.5,131C 258.853,131.315 258.187,132.482 259.5,134.5C 257.352,135.977 256.018,137.977 255.5,140.5C 259.396,147.736 262.23,155.403 264,163.5C 264.731,172.904 264.231,182.237 262.5,191.5C 259.154,202.321 253.987,212.321 247,221.5C 244.394,222.73 242.227,224.397 240.5,226.5C 244.272,221.011 247.272,215.011 249.5,208.5C 248.746,205.223 248.246,201.89 248,198.5C 247.586,198.957 247.086,199.291 246.5,199.5C 245.509,203.445 245.176,207.445 245.5,211.5C 241.808,211.695 239.974,213.695 240,217.5C 239.51,216.207 239.343,214.873 239.5,213.5C 239.5,213.167 239.5,212.833 239.5,212.5C 240.806,211.032 242.306,209.699 244,208.5C 244.667,197.5 244.667,186.5 244,175.5C 242.12,168.74 239.953,162.073 237.5,155.5C 242.504,160.162 246.004,165.829 248,172.5C 248.333,168.167 248.667,163.833 249,159.5C 249.915,158.672 250.581,157.672 251,156.5C 251.375,151.799 251.542,147.299 251.5,143C 246.872,138.229 246.038,133.062 249,127.5C 250.073,128.28 251.24,128.113 252.5,127C 249.332,126.418 248.999,125.418 251.5,124C 249.731,122.981 248.064,122.814 246.5,123.5C 245.638,122.234 244.971,120.901 244.5,119.5 Z"/></g>
<g><path style="opacity:0.216" fill="#070e21" d="M 210.5,145.5 C 206.395,145.234 202.395,145.734 198.5,147C 192.396,151.137 186.563,155.637 181,160.5C 177.384,166.751 176.551,173.418 178.5,180.5C 177.833,180.167 177.167,179.833 176.5,179.5C 176.167,178.167 175.833,176.833 175.5,175.5C 174.683,169.277 176.016,163.61 179.5,158.5C 183.771,154.025 188.771,150.525 194.5,148C 191.464,148.005 188.464,148.505 185.5,149.5C 186.167,148.5 186.833,147.5 187.5,146.5C 188.167,146.5 188.833,146.5 189.5,146.5C 196.55,144.427 203.55,144.094 210.5,145.5 Z"/></g>
<g><path style="opacity:0.992" fill="#3a7d91" d="M 179.5,158.5 C 179.585,157.005 178.919,156.005 177.5,155.5C 176.717,157.288 175.384,158.288 173.5,158.5C 174.167,157.5 174.833,156.5 175.5,155.5C 176.306,154.272 177.306,153.272 178.5,152.5C 180.713,151.227 183.046,150.227 185.5,149.5C 188.464,148.505 191.464,148.005 194.5,148C 188.771,150.525 183.771,154.025 179.5,158.5 Z"/></g>
<g><path style="opacity:0.102" fill="#1d053e" d="M 199.5,143.5 C 224.706,142.538 239.206,154.538 243,179.5C 243.817,185.016 243.651,190.35 242.5,195.5C 242.443,194.391 242.11,193.391 241.5,192.5C 242.664,180.825 240.497,169.825 235,159.5C 228.394,152.052 220.227,147.385 210.5,145.5C 203.55,144.094 196.55,144.427 189.5,146.5C 192.381,144.32 195.714,143.32 199.5,143.5 Z"/></g>
<g><path style="opacity:0.984" fill="#6d2794" d="M 199.5,143.5 C 202.649,142.835 205.982,142.502 209.5,142.5C 214.394,142.302 219.06,142.969 223.5,144.5C 223.5,145.167 223.833,145.5 224.5,145.5C 225.919,146.451 227.585,146.784 229.5,146.5C 229.281,147.675 229.614,148.675 230.5,149.5C 233.464,150.808 235.797,152.808 237.5,155.5C 239.953,162.073 242.12,168.74 244,175.5C 244.667,186.5 244.667,197.5 244,208.5C 242.306,209.699 240.806,211.032 239.5,212.5C 241.614,207.042 242.614,201.376 242.5,195.5C 243.651,190.35 243.817,185.016 243,179.5C 239.206,154.538 224.706,142.538 199.5,143.5 Z"/></g>
<g><path style="opacity:0.973" fill="#7857b2" d="M 176.5,152.5 C 177.167,152.5 177.833,152.5 178.5,152.5C 177.306,153.272 176.306,154.272 175.5,155.5C 173.068,156.75 170.734,158.25 168.5,160C 166.97,162.352 165.303,164.519 163.5,166.5C 164.383,163.296 166.05,160.629 168.5,158.5C 170.884,156.115 173.55,154.115 176.5,152.5 Z"/></g>
<g><path style="opacity:0.049" fill="#0d0230" d="M 280.5,115.5 C 282.341,117.849 283.674,120.515 284.5,123.5C 284.768,126.74 285.434,129.906 286.5,133C 286.333,133.5 286.167,134 286,134.5C 280.885,128.59 279.219,129.59 281,137.5C 283.178,140.862 284.678,144.529 285.5,148.5C 286.689,149.429 288.022,149.762 289.5,149.5C 288.659,156.465 288.326,163.465 288.5,170.5C 288.496,178.168 286.496,185.168 282.5,191.5C 282.5,189.833 282.5,188.167 282.5,186.5C 283.578,183.598 284.244,180.598 284.5,177.5C 286.392,171.754 286.892,165.754 286,159.5C 285.985,153.636 284.485,148.303 281.5,143.5C 280.412,138.898 278.746,134.564 276.5,130.5C 277.995,130.585 278.995,129.919 279.5,128.5C 276.314,124.984 273.98,120.984 272.5,116.5C 275.789,120.799 279.123,125.132 282.5,129.5C 282.833,128.667 283.167,127.833 283.5,127C 282.159,123.199 281.159,119.365 280.5,115.5 Z"/></g>
<g><path style="opacity:0.992" fill="#3b77a4" d="M 175.5,155.5 C 174.833,156.5 174.167,157.5 173.5,158.5C 171.757,160.924 170.424,163.591 169.5,166.5C 165.974,169.839 163.141,173.839 161,178.5C 158.021,184.261 156.188,190.261 155.5,196.5C 155.5,194.5 155.5,192.5 155.5,190.5C 155.5,189.5 155.5,188.5 155.5,187.5C 156.232,186.192 157.066,184.858 158,183.5C 158.337,178.535 159.503,173.869 161.5,169.5C 162.906,169.027 163.573,168.027 163.5,166.5C 165.303,164.519 166.97,162.352 168.5,160C 170.734,158.25 173.068,156.75 175.5,155.5 Z"/></g>
<g><path style="opacity:0.965" fill="#279092" d="M 179.5,158.5 C 176.016,163.61 174.683,169.277 175.5,175.5C 175.167,175.5 174.833,175.5 174.5,175.5C 174.824,171.445 174.491,167.445 173.5,163.5C 172.358,164.826 171.024,165.826 169.5,166.5C 170.424,163.591 171.757,160.924 173.5,158.5C 175.384,158.288 176.717,157.288 177.5,155.5C 178.919,156.005 179.585,157.005 179.5,158.5 Z"/></g>
<g><path style="opacity:0.969" fill="#775bb7" d="M 161.5,169.5 C 159.503,173.869 158.337,178.535 158,183.5C 157.066,184.858 156.232,186.192 155.5,187.5C 155.756,184.402 156.422,181.402 157.5,178.5C 157.495,174.773 158.829,171.773 161.5,169.5 Z"/></g>
<g><path style="opacity:0.996" fill="#480f8e" d="M 282.5,153.5 C 283.711,156.515 284.378,159.682 284.5,163C 283.802,167.811 283.469,172.644 283.5,177.5C 280.805,189.035 274.972,198.702 266,206.5C 265.667,207.833 265.333,209.167 265,210.5C 261.692,213.471 258.359,216.471 255,219.5C 254.517,220.448 254.351,221.448 254.5,222.5C 249.742,223.052 245.742,225.219 242.5,229C 238.023,231.323 233.69,233.823 229.5,236.5C 233.141,233.195 236.808,229.862 240.5,226.5C 242.227,224.397 244.394,222.73 247,221.5C 253.987,212.321 259.154,202.321 262.5,191.5C 265.066,180.71 267.233,169.71 269,158.5C 270.525,158.888 272.192,158.888 274,158.5C 274.463,154.162 274.963,149.829 275.5,145.5C 275.558,142.922 274.891,140.589 273.5,138.5C 273.75,137.078 274.583,136.078 276,135.5C 276.738,138.47 277.904,141.136 279.5,143.5C 280.321,146.447 280.821,149.447 281,152.5C 281.383,153.056 281.883,153.389 282.5,153.5 Z"/></g>
<g><path style="opacity:0.996" fill="#983db0" d="M 156.5,142.5 C 155.65,146.553 154.484,150.553 153,154.5C 152.168,164.184 152.335,173.851 153.5,183.5C 154.835,181.799 156.168,180.132 157.5,178.5C 156.422,181.402 155.756,184.402 155.5,187.5C 155.5,188.5 155.5,189.5 155.5,190.5C 154.935,192.42 153.935,194.087 152.5,195.5C 152.167,194.833 151.833,194.167 151.5,193.5C 150.006,184.888 149.506,176.221 150,167.5C 150.259,158.545 152.426,150.212 156.5,142.5 Z"/></g>
<g><path style="opacity:0.996" fill="#4da48c" d="M 177.5,183.5 C 182.357,192.032 188.024,200.032 194.5,207.5C 193.761,207.631 193.094,207.464 192.5,207C 187.59,201.93 182.924,196.764 178.5,191.5C 177.612,188.946 177.279,186.279 177.5,183.5 Z"/></g>
<g><path style="opacity:0.035" fill="#0d0121" d="M 147.5,173.5 C 148.346,180.266 149.679,186.933 151.5,193.5C 151.833,194.167 152.167,194.833 152.5,195.5C 152.232,197.099 152.566,198.432 153.5,199.5C 153.5,200.167 153.5,200.833 153.5,201.5C 152.833,201.833 152.167,202.167 151.5,202.5C 147.987,193.188 146.654,183.521 147.5,173.5 Z"/></g>
<g><path style="opacity:0.988" fill="#66539e" d="M 155.5,190.5 C 155.5,192.5 155.5,194.5 155.5,196.5C 154.833,197.5 154.167,198.5 153.5,199.5C 152.566,198.432 152.232,197.099 152.5,195.5C 153.935,194.087 154.935,192.42 155.5,190.5 Z"/></g>
<g><path style="opacity:0.086" fill="#061716" d="M 176.5,179.5 C 177.167,179.833 177.833,180.167 178.5,180.5C 189.326,198.515 202.659,214.682 218.5,229C 220.169,230.669 222.169,231.502 224.5,231.5C 223.992,233.233 223.159,233.566 222,232.5C 221.517,233.448 221.351,234.448 221.5,235.5C 221.167,235.5 220.833,235.5 220.5,235.5C 220.5,234.833 220.167,234.5 219.5,234.5C 214.148,227.483 208.148,221.149 201.5,215.5C 199.646,212.49 197.313,209.824 194.5,207.5C 188.024,200.032 182.357,192.032 177.5,183.5C 177.167,182.167 176.833,180.833 176.5,179.5 Z"/></g>
<g><path style="opacity:0.969" fill="#632c98" d="M 283.5,177.5 C 283.833,177.5 284.167,177.5 284.5,177.5C 284.244,180.598 283.578,183.598 282.5,186.5C 280.37,192.078 277.204,197.078 273,201.5C 271.872,203.345 271.372,205.345 271.5,207.5C 268.397,209.423 265.397,211.59 262.5,214C 260.305,217.359 257.638,220.193 254.5,222.5C 254.351,221.448 254.517,220.448 255,219.5C 258.359,216.471 261.692,213.471 265,210.5C 265.333,209.167 265.667,207.833 266,206.5C 274.972,198.702 280.805,189.035 283.5,177.5 Z"/></g>
<g><path style="opacity:0.996" fill="#1da398" d="M 174.5,175.5 C 172.905,173.889 171.739,171.889 171,169.5C 169.71,171.657 168.876,173.99 168.5,176.5C 170.099,187.166 171.099,197.666 171.5,208C 169.172,208.83 166.838,209.663 164.5,210.5C 163.106,210.379 161.772,210.046 160.5,209.5C 158.902,216.019 160.402,221.685 165,226.5C 166.537,230.229 168.037,233.895 169.5,237.5C 166.067,232.755 162.9,227.755 160,222.5C 157.985,215.435 155.818,208.435 153.5,201.5C 153.5,200.833 153.5,200.167 153.5,199.5C 154.167,198.5 154.833,197.5 155.5,196.5C 156.188,190.261 158.021,184.261 161,178.5C 163.141,173.839 165.974,169.839 169.5,166.5C 171.024,165.826 172.358,164.826 173.5,163.5C 174.491,167.445 174.824,171.445 174.5,175.5 Z"/></g>
<g><path style="opacity:0.376" fill="#260b48" d="M 282.5,186.5 C 282.5,188.167 282.5,189.833 282.5,191.5C 280.165,197.514 276.831,202.848 272.5,207.5C 272.167,207.5 271.833,207.5 271.5,207.5C 271.372,205.345 271.872,203.345 273,201.5C 277.204,197.078 280.37,192.078 282.5,186.5 Z"/></g>
<g><path style="opacity:0.996" fill="#48be8a" d="M 178.5,191.5 C 182.924,196.764 187.59,201.93 192.5,207C 193.094,207.464 193.761,207.631 194.5,207.5C 197.313,209.824 199.646,212.49 201.5,215.5C 198.765,214.107 196.432,212.107 194.5,209.5C 192.844,207.978 191.677,208.311 191,210.5C 188.444,209.781 187.277,208.114 187.5,205.5C 186.178,205.67 185.011,205.337 184,204.5C 183.56,206.076 182.727,207.41 181.5,208.5C 183.523,212.181 185.523,215.847 187.5,219.5C 186.527,219.013 185.527,218.513 184.5,218C 182.934,215.674 181.268,213.508 179.5,211.5C 179.005,209.518 178.505,207.518 178,205.5C 172.951,199.782 171.285,193.115 173,185.5C 174.011,184.663 175.178,184.33 176.5,184.5C 175.99,187.388 176.656,189.721 178.5,191.5 Z"/></g>
<g><path style="opacity:0.996" fill="#60c584" d="M 201.5,215.5 C 208.148,221.149 214.148,227.483 219.5,234.5C 219.573,236.027 218.906,237.027 217.5,237.5C 217.239,234.367 215.572,233.2 212.5,234C 209.201,237.507 206.867,237.007 205.5,232.5C 207.5,232.5 209.5,232.5 211.5,232.5C 211.253,227.924 208.919,225.257 204.5,224.5C 204.5,225.5 204.5,226.5 204.5,227.5C 201.5,226.167 198.5,224.833 195.5,223.5C 195.343,224.873 195.51,226.207 196,227.5C 197.667,229.833 199.333,232.167 201,234.5C 201.483,235.448 201.649,236.448 201.5,237.5C 200.5,236.833 199.5,236.167 198.5,235.5C 194.014,230.689 190.347,225.356 187.5,219.5C 185.523,215.847 183.523,212.181 181.5,208.5C 182.727,207.41 183.56,206.076 184,204.5C 185.011,205.337 186.178,205.67 187.5,205.5C 187.277,208.114 188.444,209.781 191,210.5C 191.677,208.311 192.844,207.978 194.5,209.5C 196.432,212.107 198.765,214.107 201.5,215.5 Z"/></g>
<g><path style="opacity:0.996" fill="#23ac96" d="M 174.5,175.5 C 174.833,175.5 175.167,175.5 175.5,175.5C 175.833,176.833 176.167,178.167 176.5,179.5C 176.833,180.833 177.167,182.167 177.5,183.5C 177.279,186.279 177.612,188.946 178.5,191.5C 176.656,189.721 175.99,187.388 176.5,184.5C 175.178,184.33 174.011,184.663 173,185.5C 171.285,193.115 172.951,199.782 178,205.5C 178.505,207.518 179.005,209.518 179.5,211.5C 180.647,215.127 182.313,218.46 184.5,221.5C 184.099,224.281 182.765,225.281 180.5,224.5C 179.261,226.007 179.595,227.174 181.5,228C 179.833,229.667 178.167,231.333 176.5,233C 177.167,233.333 177.833,233.667 178.5,234C 177.5,235 176.5,236 175.5,237C 176.833,237.333 178.167,237.667 179.5,238C 177.349,238.265 175.682,239.265 174.5,241C 175.402,245.105 177.569,248.271 181,250.5C 181.44,252.866 181.94,255.199 182.5,257.5C 180.164,255.996 178.331,253.996 177,251.5C 174.196,246.898 171.696,242.232 169.5,237.5C 168.037,233.895 166.537,230.229 165,226.5C 160.402,221.685 158.902,216.019 160.5,209.5C 161.772,210.046 163.106,210.379 164.5,210.5C 166.838,209.663 169.172,208.83 171.5,208C 171.099,197.666 170.099,187.166 168.5,176.5C 168.876,173.99 169.71,171.657 171,169.5C 171.739,171.889 172.905,173.889 174.5,175.5 Z"/></g>
<g><path style="opacity:0.996" fill="#a332c1" d="M 240.5,226.5 C 236.808,229.862 233.141,233.195 229.5,236.5C 228.07,237.537 226.403,238.204 224.5,238.5C 223.662,238.158 223.328,237.492 223.5,236.5C 230.064,229.709 235.398,222.043 239.5,213.5C 239.343,214.873 239.51,216.207 240,217.5C 239.974,213.695 241.808,211.695 245.5,211.5C 245.176,207.445 245.509,203.445 246.5,199.5C 247.086,199.291 247.586,198.957 248,198.5C 248.246,201.89 248.746,205.223 249.5,208.5C 247.272,215.011 244.272,221.011 240.5,226.5 Z"/></g>
<g><path style="opacity:0.29" fill="#1c0533" d="M 241.5,192.5 C 242.11,193.391 242.443,194.391 242.5,195.5C 242.614,201.376 241.614,207.042 239.5,212.5C 239.5,212.833 239.5,213.167 239.5,213.5C 235.398,222.043 230.064,229.709 223.5,236.5C 222.508,236.672 221.842,236.338 221.5,235.5C 221.351,234.448 221.517,233.448 222,232.5C 223.159,233.566 223.992,233.233 224.5,231.5C 234.636,220.418 240.303,207.418 241.5,192.5 Z"/></g>
<g><path style="opacity:0.114" fill="#120430" d="M 271.5,207.5 C 271.833,207.5 272.167,207.5 272.5,207.5C 261.9,221.1 248.9,231.767 233.5,239.5C 232.288,240.23 231.288,241.23 230.5,242.5C 229.476,241.147 228.143,240.48 226.5,240.5C 226.167,240.5 225.833,240.5 225.5,240.5C 225.5,240.167 225.5,239.833 225.5,239.5C 228.423,238.803 231.256,237.803 234,236.5C 240.692,231.644 247.525,226.977 254.5,222.5C 257.638,220.193 260.305,217.359 262.5,214C 265.397,211.59 268.397,209.423 271.5,207.5 Z"/></g>
<g><path style="opacity:0.014" fill="#08161c" d="M 153.5,201.5 C 155.818,208.435 157.985,215.435 160,222.5C 162.9,227.755 166.067,232.755 169.5,237.5C 171.696,242.232 174.196,246.898 177,251.5C 178.331,253.996 180.164,255.996 182.5,257.5C 186.333,265.171 190.666,272.504 195.5,279.5C 195.5,279.833 195.5,280.167 195.5,280.5C 196.11,281.391 196.443,282.391 196.5,283.5C 193.315,282.551 190.315,283.218 187.5,285.5C 188.96,283.856 190.293,282.023 191.5,280C 184.161,265.496 175.661,251.663 166,238.5C 159.776,227.053 154.943,215.053 151.5,202.5C 152.167,202.167 152.833,201.833 153.5,201.5 Z"/></g>
<g><path style="opacity:0.965" fill="#3b1573" d="M 254.5,222.5 C 247.525,226.977 240.692,231.644 234,236.5C 231.256,237.803 228.423,238.803 225.5,239.5C 224.833,239.5 224.5,239.167 224.5,238.5C 226.403,238.204 228.07,237.537 229.5,236.5C 233.69,233.823 238.023,231.323 242.5,229C 245.742,225.219 249.742,223.052 254.5,222.5 Z"/></g>
<g><path style="opacity:0.996" fill="#73d27a" d="M 217.5,237.5 C 217.5,238.167 217.5,238.833 217.5,239.5C 214.023,239.612 212.523,241.279 213,244.5C 215.459,245.649 217.959,245.649 220.5,244.5C 218.365,246.369 215.698,247.036 212.5,246.5C 212.755,249.016 213.589,251.35 215,253.5C 218.239,256.327 220.739,259.66 222.5,263.5C 222.5,263.833 222.5,264.167 222.5,264.5C 214.423,256.413 207.423,247.413 201.5,237.5C 201.649,236.448 201.483,235.448 201,234.5C 199.333,232.167 197.667,229.833 196,227.5C 195.51,226.207 195.343,224.873 195.5,223.5C 198.5,224.833 201.5,226.167 204.5,227.5C 204.5,226.5 204.5,225.5 204.5,224.5C 208.919,225.257 211.253,227.924 211.5,232.5C 209.5,232.5 207.5,232.5 205.5,232.5C 206.867,237.007 209.201,237.507 212.5,234C 215.572,233.2 217.239,234.367 217.5,237.5 Z"/></g>
<g><path style="opacity:0.996" fill="#30b192" d="M 179.5,211.5 C 181.268,213.508 182.934,215.674 184.5,218C 185.527,218.513 186.527,219.013 187.5,219.5C 190.347,225.356 194.014,230.689 198.5,235.5C 199.492,238.823 200.492,242.156 201.5,245.5C 199.912,247.616 197.912,247.949 195.5,246.5C 194.752,243.478 194.086,240.144 193.5,236.5C 192.5,236.5 191.5,236.5 190.5,236.5C 191.145,239.483 191.479,242.317 191.5,245C 188.579,247.857 187.912,251.191 189.5,255C 187.866,255.494 186.199,255.66 184.5,255.5C 184.694,261.187 187.194,265.521 192,268.5C 193.278,272.156 194.445,275.823 195.5,279.5C 190.666,272.504 186.333,265.171 182.5,257.5C 181.94,255.199 181.44,252.866 181,250.5C 177.569,248.271 175.402,245.105 174.5,241C 175.682,239.265 177.349,238.265 179.5,238C 178.167,237.667 176.833,237.333 175.5,237C 176.5,236 177.5,235 178.5,234C 177.833,233.667 177.167,233.333 176.5,233C 178.167,231.333 179.833,229.667 181.5,228C 179.595,227.174 179.261,226.007 180.5,224.5C 182.765,225.281 184.099,224.281 184.5,221.5C 182.313,218.46 180.647,215.127 179.5,211.5 Z"/></g>
<g><path style="opacity:0.992" fill="#775c8e" d="M 220.5,235.5 C 220.833,235.5 221.167,235.5 221.5,235.5C 221.842,236.338 222.508,236.672 223.5,236.5C 223.328,237.492 223.662,238.158 224.5,238.5C 224.5,239.167 224.833,239.5 225.5,239.5C 225.5,239.833 225.5,240.167 225.5,240.5C 223.883,241.038 222.216,241.371 220.5,241.5C 219.427,239.653 219.427,237.653 220.5,235.5 Z"/></g>
<g><path style="opacity:0.996" fill="#717d83" d="M 219.5,234.5 C 220.167,234.5 220.5,234.833 220.5,235.5C 219.427,237.653 219.427,239.653 220.5,241.5C 218.799,243.423 216.799,243.757 214.5,242.5C 215.77,241.712 216.77,240.712 217.5,239.5C 217.5,238.833 217.5,238.167 217.5,237.5C 218.906,237.027 219.573,236.027 219.5,234.5 Z"/></g>
<g><path style="opacity:0.996" fill="#8cb590" d="M 217.5,239.5 C 216.77,240.712 215.77,241.712 214.5,242.5C 216.799,243.757 218.799,243.423 220.5,241.5C 222.216,241.371 223.883,241.038 225.5,240.5C 225.833,240.5 226.167,240.5 226.5,240.5C 227.833,242.167 229.167,243.833 230.5,245.5C 228.251,244.769 226.084,243.769 224,242.5C 222.541,242.808 221.374,243.475 220.5,244.5C 217.959,245.649 215.459,245.649 213,244.5C 212.523,241.279 214.023,239.612 217.5,239.5 Z"/></g>
<g><path style="opacity:0.996" fill="#3cb88e" d="M 201.5,245.5 C 202.434,246.568 202.768,247.901 202.5,249.5C 204.833,250.167 207.167,250.833 209.5,251.5C 209.337,253.857 209.503,256.19 210,258.5C 214.223,258.943 216.056,261.276 215.5,265.5C 216.5,265.5 217.5,265.5 218.5,265.5C 217.432,266.434 216.099,266.768 214.5,266.5C 214.371,268.216 214.038,269.883 213.5,271.5C 208.65,273.355 204.317,276.021 200.5,279.5C 198.955,280.452 197.288,280.785 195.5,280.5C 195.5,280.167 195.5,279.833 195.5,279.5C 194.445,275.823 193.278,272.156 192,268.5C 187.194,265.521 184.694,261.187 184.5,255.5C 186.199,255.66 187.866,255.494 189.5,255C 187.912,251.191 188.579,247.857 191.5,245C 191.479,242.317 191.145,239.483 190.5,236.5C 191.5,236.5 192.5,236.5 193.5,236.5C 194.086,240.144 194.752,243.478 195.5,246.5C 197.912,247.949 199.912,247.616 201.5,245.5 Z"/></g>
<g><path style="opacity:0.984" fill="#93bc93" d="M 231.5,247.5 C 234.833,250.167 237.833,253.167 240.5,256.5C 240.586,257.496 240.252,258.329 239.5,259C 237.564,259.813 235.564,260.313 233.5,260.5C 234.635,258.787 236.302,258.12 238.5,258.5C 238.649,257.448 238.483,256.448 238,255.5C 235.218,253.229 233.051,250.563 231.5,247.5 Z"/></g>
<g><path style="opacity:0.14" fill="#0c0028" d="M 302.5,248.5 C 284.596,247.813 266.929,249.98 249.5,255C 247.68,255.2 246.347,256.034 245.5,257.5C 243.901,257.768 242.568,257.434 241.5,256.5C 243.039,255.233 244.706,254.233 246.5,253.5C 264.751,247.075 283.417,245.408 302.5,248.5 Z"/></g>
<g><path style="opacity:0.996" fill="#92cd85" d="M 230.5,245.5 C 231.338,245.842 231.672,246.508 231.5,247.5C 233.051,250.563 235.218,253.229 238,255.5C 238.483,256.448 238.649,257.448 238.5,258.5C 236.302,258.12 234.635,258.787 233.5,260.5C 232.833,261.167 232.167,261.833 231.5,262.5C 228.645,263.117 225.978,264.117 223.5,265.5C 223.167,265.5 222.833,265.5 222.5,265.5C 222.5,265.167 222.5,264.833 222.5,264.5C 222.5,264.167 222.5,263.833 222.5,263.5C 224.482,263.005 226.482,262.505 228.5,262C 231.035,259.963 233.702,258.13 236.5,256.5C 233.608,253.448 230.941,250.282 228.5,247C 226.231,244.977 223.564,244.144 220.5,244.5C 221.374,243.475 222.541,242.808 224,242.5C 226.084,243.769 228.251,244.769 230.5,245.5 Z"/></g>
<g><path style="opacity:0.793" fill="#220a52" d="M 302.5,248.5 C 303.609,248.557 304.609,248.89 305.5,249.5C 306.1,250.9 307.1,251.9 308.5,252.5C 301.399,251.234 294.232,250.567 287,250.5C 279.521,250.259 272.354,251.259 265.5,253.5C 258.764,254.557 252.097,255.89 245.5,257.5C 246.347,256.034 247.68,255.2 249.5,255C 266.929,249.98 284.596,247.813 302.5,248.5 Z"/></g>
<g><path style="opacity:0.996" fill="#8bda71" d="M 220.5,244.5 C 223.564,244.144 226.231,244.977 228.5,247C 230.941,250.282 233.608,253.448 236.5,256.5C 233.702,258.13 231.035,259.963 228.5,262C 226.482,262.505 224.482,263.005 222.5,263.5C 220.739,259.66 218.239,256.327 215,253.5C 213.589,251.35 212.755,249.016 212.5,246.5C 215.698,247.036 218.365,246.369 220.5,244.5 Z"/></g>
<g><path style="opacity:0.012" fill="#030d0a" d="M 233.5,239.5 C 233.298,241.989 233.798,244.323 235,246.5C 237.167,248.667 239.333,250.833 241.5,253C 243.134,253.494 244.801,253.66 246.5,253.5C 244.706,254.233 243.039,255.233 241.5,256.5C 241.167,256.5 240.833,256.5 240.5,256.5C 237.833,253.167 234.833,250.167 231.5,247.5C 231.672,246.508 231.338,245.842 230.5,245.5C 229.167,243.833 227.833,242.167 226.5,240.5C 228.143,240.48 229.476,241.147 230.5,242.5C 231.288,241.23 232.288,240.23 233.5,239.5 Z"/></g>
<g><path style="opacity:0.024" fill="#09001f" d="M 305.5,249.5 C 309.836,249.837 313.503,251.504 316.5,254.5C 316.565,254.938 316.399,255.272 316,255.5C 313.692,254.009 311.192,253.009 308.5,252.5C 307.1,251.9 306.1,250.9 305.5,249.5 Z"/></g>
<g><path style="opacity:0.986" fill="#3d1579" d="M 308.5,252.5 C 308.5,253.167 308.5,253.833 308.5,254.5C 298.081,252.434 287.748,252.1 277.5,253.5C 273.5,253.5 269.5,253.5 265.5,253.5C 272.354,251.259 279.521,250.259 287,250.5C 294.232,250.567 301.399,251.234 308.5,252.5 Z"/></g>
<g><path style="opacity:0.996" fill="#410e8c" d="M 277.5,253.5 C 287.748,252.1 298.081,252.434 308.5,254.5C 309.167,255.167 309.833,255.833 310.5,256.5C 307.95,256.884 306.617,258.384 306.5,261C 309.043,265.069 311.543,269.236 314,273.5C 314.651,275.235 314.485,276.902 313.5,278.5C 313.846,279.696 314.346,279.696 315,278.5C 317.001,284.064 318.167,289.564 318.5,295C 318,295.5 317.5,296 317,296.5C 314.667,294.167 312.333,291.833 310,289.5C 309.497,284.831 307.664,280.831 304.5,277.5C 302.807,279.279 300.807,279.779 298.5,279C 295.939,272.77 291.606,268.103 285.5,265C 285.493,262.881 284.326,261.047 282,259.5C 281.383,258.551 281.549,257.718 282.5,257C 286.584,256.769 290.584,256.102 294.5,255C 288.956,253.596 283.29,253.096 277.5,253.5 Z"/></g>
<g><path style="opacity:0.996" fill="#4f307a" d="M 240.5,256.5 C 240.833,256.5 241.167,256.5 241.5,256.5C 242.568,257.434 243.901,257.768 245.5,257.5C 244.449,258.222 243.782,259.222 243.5,260.5C 239.5,261.167 235.5,261.833 231.5,262.5C 232.167,261.833 232.833,261.167 233.5,260.5C 235.564,260.313 237.564,259.813 239.5,259C 240.252,258.329 240.586,257.496 240.5,256.5 Z"/></g>
<g><path style="opacity:0.184" fill="#12053b" d="M 308.5,252.5 C 311.192,253.009 313.692,254.009 316,255.5C 316.399,255.272 316.565,254.938 316.5,254.5C 320.729,256.064 324.063,258.731 326.5,262.5C 327.475,264.193 328.808,265.693 330.5,267C 330.167,267.333 329.833,267.667 329.5,268C 330.5,269 331.5,270 332.5,271C 331.944,271.383 331.611,271.883 331.5,272.5C 327.959,267.285 323.626,262.619 318.5,258.5C 315.352,256.681 312.019,255.348 308.5,254.5C 308.5,253.833 308.5,253.167 308.5,252.5 Z"/></g>
<g><path style="opacity:0.996" fill="#41b981" d="M 198.5,235.5 C 199.5,236.167 200.5,236.833 201.5,237.5C 207.423,247.413 214.423,256.413 222.5,264.5C 222.5,264.833 222.5,265.167 222.5,265.5C 221.167,265.5 219.833,265.5 218.5,265.5C 217.5,265.5 216.5,265.5 215.5,265.5C 216.056,261.276 214.223,258.943 210,258.5C 209.503,256.19 209.337,253.857 209.5,251.5C 207.167,250.833 204.833,250.167 202.5,249.5C 202.768,247.901 202.434,246.568 201.5,245.5C 200.492,242.156 199.492,238.823 198.5,235.5 Z"/></g>
<g><path style="opacity:0.007" fill="#000002" d="M 326.5,262.5 C 328.167,263.833 329.833,263.833 331.5,262.5C 334.19,266.554 336.524,270.888 338.5,275.5C 339.928,278.303 340.595,281.303 340.5,284.5C 339.935,282.58 338.935,280.913 337.5,279.5C 337.338,281.527 337.505,283.527 338,285.5C 338.77,286.598 339.603,286.598 340.5,285.5C 341.766,301.425 338.766,316.425 331.5,330.5C 329.079,328.939 329.079,327.439 331.5,326C 337.238,311.456 338.738,296.623 336,281.5C 335.337,277.965 333.837,274.965 331.5,272.5C 331.611,271.883 331.944,271.383 332.5,271C 331.5,270 330.5,269 329.5,268C 329.833,267.667 330.167,267.333 330.5,267C 328.808,265.693 327.475,264.193 326.5,262.5 Z M 337.5,279.5 C 336.733,278.828 336.066,277.995 335.5,277C 337.061,276.812 337.728,277.645 337.5,279.5 Z"/></g>
<g><path style="opacity:0.106" fill="#100225" d="M 343.5,270.5 C 342.609,269.89 341.609,269.557 340.5,269.5C 339.165,267.097 337.498,265.764 335.5,265.5C 337.616,267.4 338.949,269.733 339.5,272.5C 339.737,273.791 339.404,274.791 338.5,275.5C 336.524,270.888 334.19,266.554 331.5,262.5C 337.665,261.256 341.665,263.923 343.5,270.5 Z"/></g>
<g><path style="opacity:0.996" fill="#583379" d="M 231.5,262.5 C 231.167,263.167 230.833,263.833 230.5,264.5C 228.544,266.148 226.211,266.815 223.5,266.5C 223.5,266.167 223.5,265.833 223.5,265.5C 225.978,264.117 228.645,263.117 231.5,262.5 Z"/></g>
<g><path style="opacity:0.996" fill="#5ba79c" d="M 218.5,265.5 C 219.833,265.5 221.167,265.5 222.5,265.5C 222.833,265.5 223.167,265.5 223.5,265.5C 223.5,265.833 223.5,266.167 223.5,266.5C 220.296,267.383 217.629,269.05 215.5,271.5C 214.833,271.5 214.167,271.5 213.5,271.5C 214.038,269.883 214.371,268.216 214.5,266.5C 216.099,266.768 217.432,266.434 218.5,265.5 Z"/></g>
<g><path style="opacity:0.808" fill="#553b6b" d="M 340.5,269.5 C 340.833,270.167 341.167,270.833 341.5,271.5C 340.833,271.5 340.5,271.833 340.5,272.5C 340.167,272.5 339.833,272.5 339.5,272.5C 338.949,269.733 337.616,267.4 335.5,265.5C 337.498,265.764 339.165,267.097 340.5,269.5 Z"/></g>
<g><path style="opacity:0.996" fill="#581698" d="M 255.5,272.5 C 247.48,271.857 240.48,274.023 234.5,279C 235.071,280.205 235.738,281.372 236.5,282.5C 239.64,282.946 242.307,284.279 244.5,286.5C 243.873,287.417 243.539,288.417 243.5,289.5C 240.881,289.768 238.381,289.435 236,288.5C 234.601,289.227 233.101,289.727 231.5,290C 234.167,290.667 234.167,291.333 231.5,292C 229.482,292.505 227.482,293.005 225.5,293.5C 226.234,292.292 226.567,290.959 226.5,289.5C 224.473,289.662 222.473,289.495 220.5,289C 219.62,287.644 219.286,286.144 219.5,284.5C 224.051,282.341 228.718,280.175 233.5,278C 236.413,274.409 240.079,272.076 244.5,271C 241.367,269.43 238.033,269.097 234.5,270C 233.874,270.75 233.374,271.584 233,272.5C 231.667,271.167 230.333,271.167 229,272.5C 228.383,271.551 228.549,270.718 229.5,270C 233.392,268.997 236.725,267.164 239.5,264.5C 236.554,263.679 233.554,263.679 230.5,264.5C 230.833,263.833 231.167,263.167 231.5,262.5C 235.5,261.833 239.5,261.167 243.5,260.5C 247.132,258.57 249.798,259.404 251.5,263C 251.18,264.653 250.18,265.653 248.5,266C 251.862,268.154 255.029,267.654 258,264.5C 259.214,266.049 260.714,267.215 262.5,268C 263.833,268.667 263.833,269.333 262.5,270C 259.809,270.156 257.476,270.989 255.5,272.5 Z"/></g>
<g><path style="opacity:0.996" fill="#4e1393" d="M 265.5,253.5 C 264.537,254.363 264.537,255.03 265.5,255.5C 267.993,254.036 270.326,254.203 272.5,256C 271.833,256.333 271.167,256.667 270.5,257C 275.067,258.532 277.567,261.366 278,265.5C 280.489,268.832 283.656,271.166 287.5,272.5C 283.555,273.491 279.555,273.824 275.5,273.5C 268.869,272.669 262.202,272.336 255.5,272.5C 257.476,270.989 259.809,270.156 262.5,270C 263.833,269.333 263.833,268.667 262.5,268C 260.714,267.215 259.214,266.049 258,264.5C 255.029,267.654 251.862,268.154 248.5,266C 250.18,265.653 251.18,264.653 251.5,263C 249.798,259.404 247.132,258.57 243.5,260.5C 243.782,259.222 244.449,258.222 245.5,257.5C 252.097,255.89 258.764,254.557 265.5,253.5 Z"/></g>
<g><path style="opacity:0.996" fill="#523586" d="M 223.5,266.5 C 222.323,268.032 220.989,269.532 219.5,271C 218.207,271.49 216.873,271.657 215.5,271.5C 217.629,269.05 220.296,267.383 223.5,266.5 Z"/></g>
<g><path style="opacity:0.996" fill="#3c0c88" d="M 255.5,272.5 C 262.202,272.336 268.869,272.669 275.5,273.5C 280.739,275.78 286.072,278.113 291.5,280.5C 299.441,289.37 303.108,299.703 302.5,311.5C 302.805,317.99 301.471,323.99 298.5,329.5C 298.893,322.387 298.226,315.387 296.5,308.5C 294.392,303.258 291.392,298.758 287.5,295C 283.271,292.853 278.938,290.853 274.5,289C 266.858,287.848 259.191,287.514 251.5,288C 250.944,288.383 250.611,288.883 250.5,289.5C 248.167,289.5 245.833,289.5 243.5,289.5C 243.539,288.417 243.873,287.417 244.5,286.5C 242.307,284.279 239.64,282.946 236.5,282.5C 235.738,281.372 235.071,280.205 234.5,279C 240.48,274.023 247.48,271.857 255.5,272.5 Z"/></g>
<g><path style="opacity:0.996" fill="#504386" d="M 213.5,271.5 C 214.167,271.5 214.833,271.5 215.5,271.5C 213.088,274.178 210.421,276.512 207.5,278.5C 204.833,280.167 202.167,281.833 199.5,283.5C 203.794,279.026 208.461,275.026 213.5,271.5 Z"/></g>
<g><path style="opacity:0.996" fill="#571f8b" d="M 308.5,254.5 C 312.019,255.348 315.352,256.681 318.5,258.5C 323.626,262.619 327.959,267.285 331.5,272.5C 333.333,280.005 334.666,287.672 335.5,295.5C 334.954,302.759 333.621,309.759 331.5,316.5C 332.922,306.875 333.422,297.209 333,287.5C 330.11,281.981 327.944,276.314 326.5,270.5C 324.666,268.495 322.999,266.328 321.5,264C 318.978,262.659 316.311,261.826 313.5,261.5C 313.279,259.336 312.279,257.67 310.5,256.5C 309.833,255.833 309.167,255.167 308.5,254.5 Z"/></g>
<g><path style="opacity:0.996" fill="#6ba49f" d="M 213.5,271.5 C 208.461,275.026 203.794,279.026 199.5,283.5C 198.833,283.5 198.167,283.5 197.5,283.5C 197.167,283.5 196.833,283.5 196.5,283.5C 196.443,282.391 196.11,281.391 195.5,280.5C 197.288,280.785 198.955,280.452 200.5,279.5C 204.317,276.021 208.65,273.355 213.5,271.5 Z"/></g>
<g><path style="opacity:0.983" fill="#7a3c98" d="M 341.5,271.5 C 343.912,274.368 345.579,277.701 346.5,281.5C 345.883,281.389 345.383,281.056 345,280.5C 344.722,281.416 344.222,282.082 343.5,282.5C 342.503,279.183 341.503,275.85 340.5,272.5C 340.5,271.833 340.833,271.5 341.5,271.5 Z"/></g>
<g><path style="opacity:0.996" fill="#6a1ea1" d="M 225.5,293.5 C 223.856,293.81 222.856,294.81 222.5,296.5C 220.067,296.273 218.401,297.273 217.5,299.5C 213.849,300.659 210.515,302.326 207.5,304.5C 206.167,305.167 204.833,305.833 203.5,306.5C 201.833,307.167 200.167,307.833 198.5,308.5C 199.831,306.076 201.331,303.743 203,301.5C 204.011,302.337 205.178,302.67 206.5,302.5C 206.326,300.139 205.993,297.806 205.5,295.5C 208.577,295.347 211.411,296.014 214,297.5C 214.833,297.167 215.667,296.833 216.5,296.5C 215.176,295.065 213.51,294.065 211.5,293.5C 210.691,291.929 210.357,290.262 210.5,288.5C 218.599,286.253 218.266,285.086 209.5,285C 208.947,283.122 207.947,281.622 206.5,280.5C 206.833,279.833 207.167,279.167 207.5,278.5C 210.421,276.512 213.088,274.178 215.5,271.5C 216.873,271.657 218.207,271.49 219.5,271C 220.989,269.532 222.323,268.032 223.5,266.5C 226.211,266.815 228.544,266.148 230.5,264.5C 233.554,263.679 236.554,263.679 239.5,264.5C 236.725,267.164 233.392,268.997 229.5,270C 228.549,270.718 228.383,271.551 229,272.5C 230.333,271.167 231.667,271.167 233,272.5C 233.374,271.584 233.874,270.75 234.5,270C 238.033,269.097 241.367,269.43 244.5,271C 240.079,272.076 236.413,274.409 233.5,278C 228.718,280.175 224.051,282.341 219.5,284.5C 219.286,286.144 219.62,287.644 220.5,289C 222.473,289.495 224.473,289.662 226.5,289.5C 226.567,290.959 226.234,292.292 225.5,293.5 Z"/></g>
<g><path style="opacity:0.996" fill="#7c22ad" d="M 206.5,280.5 C 207.947,281.622 208.947,283.122 209.5,285C 218.266,285.086 218.599,286.253 210.5,288.5C 210.357,290.262 210.691,291.929 211.5,293.5C 213.51,294.065 215.176,295.065 216.5,296.5C 215.667,296.833 214.833,297.167 214,297.5C 211.411,296.014 208.577,295.347 205.5,295.5C 205.993,297.806 206.326,300.139 206.5,302.5C 205.178,302.67 204.011,302.337 203,301.5C 201.331,303.743 199.831,306.076 198.5,308.5C 194.885,311.777 191.218,315.11 187.5,318.5C 186.947,313.383 189.281,310.716 194.5,310.5C 195.429,309.311 195.762,307.978 195.5,306.5C 193.234,306.859 191.401,306.192 190,304.5C 189.549,306.929 188.715,307.096 187.5,305C 191.798,301.774 191.465,299.608 186.5,298.5C 193.467,292.868 200.134,286.868 206.5,280.5 Z"/></g>
<g><path style="opacity:0.995" fill="#4c1191" d="M 265.5,253.5 C 269.5,253.5 273.5,253.5 277.5,253.5C 283.29,253.096 288.956,253.596 294.5,255C 290.584,256.102 286.584,256.769 282.5,257C 281.549,257.718 281.383,258.551 282,259.5C 284.326,261.047 285.493,262.881 285.5,265C 291.606,268.103 295.939,272.77 298.5,279C 300.807,279.779 302.807,279.279 304.5,277.5C 307.664,280.831 309.497,284.831 310,289.5C 312.333,291.833 314.667,294.167 317,296.5C 317.5,296 318,295.5 318.5,295C 318.167,289.564 317.001,284.064 315,278.5C 314.346,279.696 313.846,279.696 313.5,278.5C 314.485,276.902 314.651,275.235 314,273.5C 311.543,269.236 309.043,265.069 306.5,261C 306.617,258.384 307.95,256.884 310.5,256.5C 312.279,257.67 313.279,259.336 313.5,261.5C 316.311,261.826 318.978,262.659 321.5,264C 322.999,266.328 324.666,268.495 326.5,270.5C 325.942,271.79 324.942,272.623 323.5,273C 324.697,276.061 324.197,278.895 322,281.5C 322.035,277.755 321.035,277.088 319,279.5C 319.217,288.478 319.384,297.478 319.5,306.5C 317.933,307.681 317.099,309.347 317,311.5C 316.581,310.328 315.915,309.328 315,308.5C 314.761,312.387 313.928,316.054 312.5,319.5C 311.022,319.762 309.689,319.429 308.5,318.5C 307.855,315.807 307.855,313.307 308.5,311C 305.877,306.167 303.877,306.334 302.5,311.5C 303.108,299.703 299.441,289.37 291.5,280.5C 286.072,278.113 280.739,275.78 275.5,273.5C 279.555,273.824 283.555,273.491 287.5,272.5C 283.656,271.166 280.489,268.832 278,265.5C 277.567,261.366 275.067,258.532 270.5,257C 271.167,256.667 271.833,256.333 272.5,256C 270.326,254.203 267.993,254.036 265.5,255.5C 264.537,255.03 264.537,254.363 265.5,253.5 Z"/></g>
<g><path style="opacity:0.996" fill="#45217e" d="M 243.5,289.5 C 245.833,289.5 248.167,289.5 250.5,289.5C 248.167,290.167 245.833,290.833 243.5,291.5C 242.833,291.5 242.167,291.5 241.5,291.5C 235.332,292.585 229.332,294.252 223.5,296.5C 223.167,296.5 222.833,296.5 222.5,296.5C 222.856,294.81 223.856,293.81 225.5,293.5C 227.482,293.005 229.482,292.505 231.5,292C 234.167,291.333 234.167,290.667 231.5,290C 233.101,289.727 234.601,289.227 236,288.5C 238.381,289.435 240.881,289.768 243.5,289.5 Z"/></g>
<g><path style="opacity:0.996" fill="#702c97" d="M 207.5,278.5 C 207.167,279.167 206.833,279.833 206.5,280.5C 200.134,286.868 193.467,292.868 186.5,298.5C 185.527,301.135 183.86,303.135 181.5,304.5C 182.578,300.585 184.578,297.251 187.5,294.5C 190.174,290.163 193.507,286.496 197.5,283.5C 198.167,283.5 198.833,283.5 199.5,283.5C 202.167,281.833 204.833,280.167 207.5,278.5 Z"/></g>
<g><path style="opacity:0.996" fill="#7f7c95" d="M 250.5,289.5 C 255.363,289.181 260.03,289.514 264.5,290.5C 260.298,290.183 256.298,290.517 252.5,291.5C 249.5,291.5 246.5,291.5 243.5,291.5C 245.833,290.833 248.167,290.167 250.5,289.5 Z"/></g>
<g><path style="opacity:0.995" fill="#8d9b92" d="M 252.5,291.5 C 256.298,290.517 260.298,290.183 264.5,290.5C 264.5,291.167 264.833,291.5 265.5,291.5C 265.5,292.167 265.5,292.833 265.5,293.5C 261.326,291.936 256.993,291.269 252.5,291.5 Z"/></g>
<g><path style="opacity:0.996" fill="#7120a5" d="M 326.5,270.5 C 327.944,276.314 330.11,281.981 333,287.5C 333.422,297.209 332.922,306.875 331.5,316.5C 329.989,322.212 328.322,327.879 326.5,333.5C 325.167,335.167 323.833,336.833 322.5,338.5C 324.609,332.732 326.109,326.732 327,320.5C 327.414,320.043 327.914,319.709 328.5,319.5C 329.833,314.5 329.833,309.5 328.5,304.5C 327.312,308.944 325.812,313.278 324,317.5C 320.255,322.065 316.755,326.732 313.5,331.5C 315.82,323.253 317.82,314.919 319.5,306.5C 319.384,297.478 319.217,288.478 319,279.5C 321.035,277.088 322.035,277.755 322,281.5C 324.197,278.895 324.697,276.061 323.5,273C 324.942,272.623 325.942,271.79 326.5,270.5 Z"/></g>
<g><path style="opacity:0.007" fill="#000000" d="M 177.5,292.5 C 172.791,297.043 168.625,302.043 165,307.5C 162.387,313.192 159.887,318.859 157.5,324.5C 159.131,310.549 165.797,299.883 177.5,292.5 Z"/></g>
<g><path style="opacity:0.995" fill="#83af78" d="M 252.5,291.5 C 256.993,291.269 261.326,291.936 265.5,293.5C 268.3,299.569 270.3,305.902 271.5,312.5C 271.167,312.5 270.833,312.5 270.5,312.5C 269.333,307.687 267.666,303.021 265.5,298.5C 257.62,296.469 249.62,295.469 241.5,295.5C 241.414,294.504 241.748,293.671 242.5,293C 246.025,292.821 249.359,292.321 252.5,291.5 Z"/></g>
<g><path style="opacity:0.996" fill="#6a859d" d="M 241.5,291.5 C 241.047,292.458 240.381,293.292 239.5,294C 234.306,295.9 228.973,297.067 223.5,297.5C 223.5,297.167 223.5,296.833 223.5,296.5C 229.332,294.252 235.332,292.585 241.5,291.5 Z"/></g>
<g><path style="opacity:0.996" fill="#6aa28c" d="M 241.5,291.5 C 242.167,291.5 242.833,291.5 243.5,291.5C 246.5,291.5 249.5,291.5 252.5,291.5C 249.359,292.321 246.025,292.821 242.5,293C 241.748,293.671 241.414,294.504 241.5,295.5C 234.32,297.443 226.987,298.776 219.5,299.5C 220.287,297.896 221.62,297.229 223.5,297.5C 228.973,297.067 234.306,295.9 239.5,294C 240.381,293.292 241.047,292.458 241.5,291.5 Z"/></g>
<g><path style="opacity:0.043" fill="#130442" d="M 268.5,291.5 C 275.895,291.916 282.228,294.583 287.5,299.5C 285.983,299.489 284.816,298.823 284,297.5C 283.617,298.056 283.117,298.389 282.5,298.5C 279.378,297.439 276.378,296.105 273.5,294.5C 271.58,293.935 269.913,292.935 268.5,291.5 Z"/></g>
<g><path style="opacity:0.98" fill="#76279e" d="M 346.5,281.5 C 347.451,282.919 347.784,284.585 347.5,286.5C 347.665,290.182 347.499,293.848 347,297.5C 346.581,298.672 345.915,299.672 345,300.5C 344.825,295.981 344.325,291.647 343.5,287.5C 343.5,285.833 343.5,284.167 343.5,282.5C 344.222,282.082 344.722,281.416 345,280.5C 345.383,281.056 345.883,281.389 346.5,281.5 Z"/></g>
<g><path style="opacity:0.965" fill="#6c3d8d" d="M 184.5,293.5 C 182.177,296.126 179.843,298.793 177.5,301.5C 176.883,301.389 176.383,301.056 176,300.5C 174.961,301.71 173.794,302.71 172.5,303.5C 172.369,302.761 172.536,302.094 173,301.5C 176.5,298.333 180,295.167 183.5,292C 185.635,291.395 185.969,291.895 184.5,293.5 Z"/></g>
<g><path style="opacity:0.996" fill="#5b5a8e" d="M 222.5,296.5 C 222.833,296.5 223.167,296.5 223.5,296.5C 223.5,296.833 223.5,297.167 223.5,297.5C 221.62,297.229 220.287,297.896 219.5,299.5C 218.833,299.5 218.167,299.5 217.5,299.5C 218.401,297.273 220.067,296.273 222.5,296.5 Z"/></g>
<g><path style="opacity:0.02" fill="#0d0023" d="M 287.5,299.5 C 287.167,300.167 286.833,300.833 286.5,301.5C 284.77,300.974 283.436,299.974 282.5,298.5C 283.117,298.389 283.617,298.056 284,297.5C 284.816,298.823 285.983,299.489 287.5,299.5 Z"/></g>
<g><path style="opacity:0.996" fill="#82a899" d="M 217.5,299.5 C 218.167,299.5 218.833,299.5 219.5,299.5C 218.167,300.5 216.833,301.5 215.5,302.5C 212.641,303.091 210.307,304.424 208.5,306.5C 208.167,306.5 207.833,306.5 207.5,306.5C 207.5,305.833 207.5,305.167 207.5,304.5C 210.515,302.326 213.849,300.659 217.5,299.5 Z"/></g>
<g><path style="opacity:0.98" fill="#551f88" d="M 347.5,286.5 C 349.837,298.122 348.171,309.122 342.5,319.5C 340.656,317.721 339.99,315.388 340.5,312.5C 343.113,304.414 344.113,296.081 343.5,287.5C 344.325,291.647 344.825,295.981 345,300.5C 345.915,299.672 346.581,298.672 347,297.5C 347.499,293.848 347.665,290.182 347.5,286.5 Z"/></g>
<g><path style="opacity:0.995" fill="#9429b9" d="M 186.5,298.5 C 191.465,299.608 191.798,301.774 187.5,305C 188.715,307.096 189.549,306.929 190,304.5C 191.401,306.192 193.234,306.859 195.5,306.5C 195.762,307.978 195.429,309.311 194.5,310.5C 189.281,310.716 186.947,313.383 187.5,318.5C 183.193,319.517 180.193,322.184 178.5,326.5C 176.867,328.503 174.867,329.836 172.5,330.5C 172.586,325.324 173.586,320.324 175.5,315.5C 176.833,314.167 178.167,314.167 179.5,315.5C 180.313,311.838 180.979,308.172 181.5,304.5C 183.86,303.135 185.527,301.135 186.5,298.5 Z"/></g>
<g><path style="opacity:0.071" fill="#14043b" d="M 331.5,272.5 C 333.837,274.965 335.337,277.965 336,281.5C 338.738,296.623 337.238,311.456 331.5,326C 329.079,327.439 329.079,328.939 331.5,330.5C 330.133,333.132 329.299,332.798 329,329.5C 328.392,331.066 327.558,332.4 326.5,333.5C 328.322,327.879 329.989,322.212 331.5,316.5C 333.621,309.759 334.954,302.759 335.5,295.5C 334.666,287.672 333.333,280.005 331.5,272.5 Z"/></g>
<g><path style="opacity:0.953" fill="#31116d" d="M 298.5,329.5 C 298.5,331.5 298.5,333.5 298.5,335.5C 297.833,335.5 297.167,335.5 296.5,335.5C 296.797,326.781 296.297,318.114 295,309.5C 293.915,304.913 291.081,302.246 286.5,301.5C 286.833,300.833 287.167,300.167 287.5,299.5C 282.228,294.583 275.895,291.916 268.5,291.5C 267.5,291.5 266.5,291.5 265.5,291.5C 264.833,291.5 264.5,291.167 264.5,290.5C 260.03,289.514 255.363,289.181 250.5,289.5C 250.611,288.883 250.944,288.383 251.5,288C 259.191,287.514 266.858,287.848 274.5,289C 278.938,290.853 283.271,292.853 287.5,295C 291.392,298.758 294.392,303.258 296.5,308.5C 298.226,315.387 298.893,322.387 298.5,329.5 Z"/></g>
<g><path style="opacity:0.171" fill="#170434" d="M 340.5,269.5 C 341.609,269.557 342.609,269.89 343.5,270.5C 345.814,273.795 347.648,277.462 349,281.5C 352.501,302.492 348.001,321.492 335.5,338.5C 336.996,331.845 339.329,325.512 342.5,319.5C 348.171,309.122 349.837,298.122 347.5,286.5C 347.784,284.585 347.451,282.919 346.5,281.5C 345.579,277.701 343.912,274.368 341.5,271.5C 341.167,270.833 340.833,270.167 340.5,269.5 Z"/></g>
<g><path style="opacity:0.071" fill="#11032e" d="M 207.5,304.5 C 207.5,305.167 207.5,305.833 207.5,306.5C 206.5,307.167 205.5,307.833 204.5,308.5C 204.158,309.338 203.492,309.672 202.5,309.5C 202.557,308.391 202.89,307.391 203.5,306.5C 204.833,305.833 206.167,305.167 207.5,304.5 Z"/></g>
<g><path style="opacity:0.035" fill="#0d0127" d="M 196.5,283.5 C 196.833,283.5 197.167,283.5 197.5,283.5C 193.507,286.496 190.174,290.163 187.5,294.5C 186.209,294.737 185.209,294.404 184.5,293.5C 185.969,291.895 185.635,291.395 183.5,292C 180,295.167 176.5,298.333 173,301.5C 172.536,302.094 172.369,302.761 172.5,303.5C 171.206,304.29 170.039,305.29 169,306.5C 167.516,309.62 166.016,312.62 164.5,315.5C 162.559,318.197 161.059,321.197 160,324.5C 159.197,329.657 157.864,334.657 156,339.5C 155.722,338.584 155.222,337.918 154.5,337.5C 154.882,332.908 155.882,328.575 157.5,324.5C 159.887,318.859 162.387,313.192 165,307.5C 168.625,302.043 172.791,297.043 177.5,292.5C 180.275,289.395 183.608,287.062 187.5,285.5C 190.315,283.218 193.315,282.551 196.5,283.5 Z"/></g>
<g><path style="opacity:0.996" fill="#5ec780" d="M 241.5,295.5 C 241.595,297.786 242.262,299.786 243.5,301.5C 244.874,305.628 245.541,309.961 245.5,314.5C 245.333,316.833 245.167,319.167 245,321.5C 244.333,322.167 243.667,322.833 243,323.5C 240.469,321.035 238.969,318.035 238.5,314.5C 237.154,317.87 235.321,320.87 233,323.5C 230.562,319.623 228.395,315.623 226.5,311.5C 223.688,309.523 221.022,307.356 218.5,305C 219.167,304.333 219.833,303.667 220.5,303C 218.866,302.506 217.199,302.34 215.5,302.5C 216.833,301.5 218.167,300.5 219.5,299.5C 226.987,298.776 234.32,297.443 241.5,295.5 Z"/></g>
<g><path style="opacity:0.993" fill="#6ccd79" d="M 243.5,301.5 C 243.833,301.5 244.167,301.5 244.5,301.5C 245.754,305.435 246.754,309.435 247.5,313.5C 248.415,320.815 248.582,328.148 248,335.5C 246.048,337.337 245.048,339.671 245,342.5C 244.626,343.416 244.126,344.25 243.5,345C 240.766,345.21 238.266,346.044 236,347.5C 235.878,345.563 235.045,344.23 233.5,343.5C 232.306,333.254 229.306,323.587 224.5,314.5C 222.417,313.041 220.25,311.708 218,310.5C 217.427,308.359 216.594,306.359 215.5,304.5C 215.5,303.833 215.5,303.167 215.5,302.5C 217.199,302.34 218.866,302.506 220.5,303C 219.833,303.667 219.167,304.333 218.5,305C 221.022,307.356 223.688,309.523 226.5,311.5C 228.395,315.623 230.562,319.623 233,323.5C 235.321,320.87 237.154,317.87 238.5,314.5C 238.969,318.035 240.469,321.035 243,323.5C 243.667,322.833 244.333,322.167 245,321.5C 245.167,319.167 245.333,316.833 245.5,314.5C 245.541,309.961 244.874,305.628 243.5,301.5 Z"/></g>
<g><path style="opacity:0.007" fill="#000000" d="M 293.5,316.5 C 296.348,326.37 295.681,336.036 291.5,345.5C 293.242,335.933 293.908,326.266 293.5,316.5 Z"/></g>
<g><path style="opacity:0.984" fill="#65278f" d="M 177.5,301.5 C 172.469,308.225 168.469,315.558 165.5,323.5C 164.307,323.03 163.64,322.03 163.5,320.5C 163.728,318.793 164.062,317.126 164.5,315.5C 166.016,312.62 167.516,309.62 169,306.5C 170.039,305.29 171.206,304.29 172.5,303.5C 173.794,302.71 174.961,301.71 176,300.5C 176.383,301.056 176.883,301.389 177.5,301.5 Z"/></g>
<g><path style="opacity:0.501" fill="#1a053a" d="M 184.5,293.5 C 185.209,294.404 186.209,294.737 187.5,294.5C 184.578,297.251 182.578,300.585 181.5,304.5C 178.913,308.267 176.08,311.933 173,315.5C 171.121,321.233 169.287,326.9 167.5,332.5C 166.833,333.5 166.167,334.5 165.5,335.5C 165.923,333.219 165.256,331.552 163.5,330.5C 163.767,328.035 164.434,325.701 165.5,323.5C 168.469,315.558 172.469,308.225 177.5,301.5C 179.843,298.793 182.177,296.126 184.5,293.5 Z"/></g>
<g><path style="opacity:0.996" fill="#95de6c" d="M 241.5,295.5 C 249.62,295.469 257.62,296.469 265.5,298.5C 267.666,303.021 269.333,307.687 270.5,312.5C 270.666,320.507 270.5,328.507 270,336.5C 269.058,339.374 267.891,342.04 266.5,344.5C 265.678,346.389 264.845,348.389 264,350.5C 263.667,345.5 263.333,340.5 263,335.5C 262.259,336.641 261.425,336.641 260.5,335.5C 259.914,335.709 259.414,336.043 259,336.5C 258.144,341.556 257.144,346.556 256,351.5C 254.482,351.943 253.315,351.276 252.5,349.5C 252.398,344.163 252.731,338.663 253.5,333C 252.548,322.999 250.881,313.166 248.5,303.5C 250.766,303.141 252.599,303.808 254,305.5C 254.689,304.643 255.522,303.977 256.5,303.5C 257.314,305.766 257.814,308.1 258,310.5C 259.395,311.815 260.395,311.481 261,309.5C 261.497,306.854 261.664,304.187 261.5,301.5C 255.833,301.5 250.167,301.5 244.5,301.5C 244.167,301.5 243.833,301.5 243.5,301.5C 242.262,299.786 241.595,297.786 241.5,295.5 Z"/></g>
<g><path style="opacity:0.024" fill="#110431" d="M 339.5,272.5 C 339.833,272.5 340.167,272.5 340.5,272.5C 341.503,275.85 342.503,279.183 343.5,282.5C 343.5,284.167 343.5,285.833 343.5,287.5C 344.113,296.081 343.113,304.414 340.5,312.5C 338.352,317.609 336.519,322.942 335,328.5C 333.414,330.67 332.08,333.004 331,335.5C 329.889,339.472 331.055,340.806 334.5,339.5C 334.443,340.609 334.11,341.609 333.5,342.5C 332.078,342.709 330.745,343.209 329.5,344C 328.408,346.594 326.741,348.761 324.5,350.5C 323.41,349.609 323.41,348.609 324.5,347.5C 323.372,346.738 322.205,346.071 321,345.5C 319.46,352.564 315.626,357.898 309.5,361.5C 308.792,364.853 306.792,366.853 303.5,367.5C 308.09,360.73 312.924,354.063 318,347.5C 319.766,344.586 321.266,341.586 322.5,338.5C 323.833,336.833 325.167,335.167 326.5,333.5C 327.558,332.4 328.392,331.066 329,329.5C 329.299,332.798 330.133,333.132 331.5,330.5C 338.766,316.425 341.766,301.425 340.5,285.5C 340.5,285.167 340.5,284.833 340.5,284.5C 340.595,281.303 339.928,278.303 338.5,275.5C 339.404,274.791 339.737,273.791 339.5,272.5 Z"/></g>
<g><path style="opacity:0.904" fill="#291062" d="M 340.5,312.5 C 339.99,315.388 340.656,317.721 342.5,319.5C 339.329,325.512 336.996,331.845 335.5,338.5C 335.5,339.167 335.167,339.5 334.5,339.5C 331.055,340.806 329.889,339.472 331,335.5C 332.08,333.004 333.414,330.67 335,328.5C 336.519,322.942 338.352,317.609 340.5,312.5 Z"/></g>
<g><path style="opacity:0.953" fill="#8ec588" d="M 215.5,302.5 C 215.5,303.167 215.5,303.833 215.5,304.5C 213.365,304.147 212.032,304.98 211.5,307C 212.712,314.517 214.712,321.684 217.5,328.5C 217.5,330.833 217.5,333.167 217.5,335.5C 214.728,325.846 211.728,316.179 208.5,306.5C 210.307,304.424 212.641,303.091 215.5,302.5 Z"/></g>
<g><path style="opacity:0.996" fill="#5f179a" d="M 319.5,306.5 C 317.82,314.919 315.82,323.253 313.5,331.5C 309.985,338.695 306.652,346.029 303.5,353.5C 302.448,353.649 301.448,353.483 300.5,353C 300.833,352.667 301.167,352.333 301.5,352C 300.914,349.72 300.08,347.553 299,345.5C 297.541,347.432 296.375,349.432 295.5,351.5C 296.504,346.158 297.504,340.825 298.5,335.5C 298.5,333.5 298.5,331.5 298.5,329.5C 301.471,323.99 302.805,317.99 302.5,311.5C 303.877,306.334 305.877,306.167 308.5,311C 307.855,313.307 307.855,315.807 308.5,318.5C 309.689,319.429 311.022,319.762 312.5,319.5C 313.928,316.054 314.761,312.387 315,308.5C 315.915,309.328 316.581,310.328 317,311.5C 317.099,309.347 317.933,307.681 319.5,306.5 Z"/></g>
<g><path style="opacity:0.09" fill="#21073c" d="M 203.5,306.5 C 202.89,307.391 202.557,308.391 202.5,309.5C 180.834,323.157 169.167,342.823 167.5,368.5C 166.687,370.261 165.687,371.928 164.5,373.5C 164.5,371.5 164.5,369.5 164.5,367.5C 165.037,362.149 165.704,356.816 166.5,351.5C 171.209,339.09 178.209,328.09 187.5,318.5C 191.218,315.11 194.885,311.777 198.5,308.5C 200.167,307.833 201.833,307.167 203.5,306.5 Z"/></g>
<g><path style="opacity:0.996" fill="#9935b4" d="M 181.5,304.5 C 180.979,308.172 180.313,311.838 179.5,315.5C 178.167,314.167 176.833,314.167 175.5,315.5C 173.586,320.324 172.586,325.324 172.5,330.5C 174.867,329.836 176.867,328.503 178.5,326.5C 180.193,322.184 183.193,319.517 187.5,318.5C 178.209,328.09 171.209,339.09 166.5,351.5C 165.275,350.848 164.608,349.681 164.5,348C 164.384,345.456 165.217,343.289 167,341.5C 167.498,338.518 167.665,335.518 167.5,332.5C 169.287,326.9 171.121,321.233 173,315.5C 176.08,311.933 178.913,308.267 181.5,304.5 Z"/></g>
<g><path style="opacity:0.122" fill="#100232" d="M 286.5,301.5 C 291.081,302.246 293.915,304.913 295,309.5C 296.297,318.114 296.797,326.781 296.5,335.5C 296.051,339.527 295.384,343.527 294.5,347.5C 293.828,349.16 292.828,350.493 291.5,351.5C 290.62,349.611 290.62,347.611 291.5,345.5C 295.681,336.036 296.348,326.37 293.5,316.5C 292.498,310.832 290.165,305.832 286.5,301.5 Z"/></g>
<g><path style="opacity:0.935" fill="#29125c" d="M 164.5,315.5 C 164.062,317.126 163.728,318.793 163.5,320.5C 163.64,322.03 164.307,323.03 165.5,323.5C 164.434,325.701 163.767,328.035 163.5,330.5C 163.259,333.917 162.092,336.917 160,339.5C 159.852,345.249 159.186,350.915 158,356.5C 157.921,354.264 157.421,352.93 156.5,352.5C 154.789,348.119 154.123,343.453 154.5,338.5C 154.5,338.167 154.5,337.833 154.5,337.5C 155.222,337.918 155.722,338.584 156,339.5C 157.864,334.657 159.197,329.657 160,324.5C 161.059,321.197 162.559,318.197 164.5,315.5 Z"/></g>
<g><path style="opacity:0.417" fill="#2d0748" d="M 164.5,338.5 C 162.911,348.092 162.245,357.758 162.5,367.5C 161.344,360.011 161.178,352.345 162,344.5C 162.002,341.949 162.836,339.949 164.5,338.5 Z"/></g>
<g><path style="opacity:0.978" fill="#592386" d="M 296.5,335.5 C 297.167,335.5 297.833,335.5 298.5,335.5C 297.504,340.825 296.504,346.158 295.5,351.5C 292.47,353.558 290.97,356.558 291,360.5C 289.629,363.266 287.796,365.599 285.5,367.5C 286.167,365.5 286.833,363.5 287.5,361.5C 289.797,358.622 291.13,355.289 291.5,351.5C 292.828,350.493 293.828,349.16 294.5,347.5C 295.384,343.527 296.051,339.527 296.5,335.5 Z"/></g>
<g><path style="opacity:0.996" fill="#94dd70" d="M 244.5,301.5 C 250.167,301.5 255.833,301.5 261.5,301.5C 261.664,304.187 261.497,306.854 261,309.5C 260.395,311.481 259.395,311.815 258,310.5C 257.814,308.1 257.314,305.766 256.5,303.5C 255.522,303.977 254.689,304.643 254,305.5C 252.599,303.808 250.766,303.141 248.5,303.5C 250.881,313.166 252.548,322.999 253.5,333C 252.731,338.663 252.398,344.163 252.5,349.5C 253.315,351.276 254.482,351.943 256,351.5C 257.144,346.556 258.144,341.556 259,336.5C 259.414,336.043 259.914,335.709 260.5,335.5C 261.425,336.641 262.259,336.641 263,335.5C 263.333,340.5 263.667,345.5 264,350.5C 264.845,348.389 265.678,346.389 266.5,344.5C 265.299,351.568 262.466,357.901 258,363.5C 257.51,364.793 257.343,366.127 257.5,367.5C 252.521,374.479 246.521,380.479 239.5,385.5C 238.127,385.343 236.793,385.51 235.5,386C 232.671,388.827 229.337,390.827 225.5,392C 223.146,393.972 221.146,396.139 219.5,398.5C 219.167,398.5 218.833,398.5 218.5,398.5C 216.051,399.057 213.718,399.057 211.5,398.5C 213.237,394.79 215.071,391.123 217,387.5C 220.161,373.702 221.328,359.702 220.5,345.5C 221.18,353.902 221.846,362.402 222.5,371C 221.62,372.356 221.286,373.856 221.5,375.5C 222.5,375.5 223.5,375.5 224.5,375.5C 224.5,376.5 224.5,377.5 224.5,378.5C 222.99,382.598 220.99,386.431 218.5,390C 218.833,390.5 219.167,391 219.5,391.5C 221.51,390.498 223.51,389.498 225.5,388.5C 224.691,386.929 224.357,385.262 224.5,383.5C 226.604,383.799 228.604,383.466 230.5,382.5C 231.026,380.77 232.026,379.436 233.5,378.5C 234.333,376.5 235.167,374.5 236,372.5C 239.085,369.585 241.585,366.251 243.5,362.5C 244.425,357.08 246.092,352.08 248.5,347.5C 251.425,335.94 251.092,324.607 247.5,313.5C 246.754,309.435 245.754,305.435 244.5,301.5 Z"/></g>
<g><path style="opacity:0.994" fill="#932cb6" d="M 322.5,338.5 C 321.266,341.586 319.766,344.586 318,347.5C 312.924,354.063 308.09,360.73 303.5,367.5C 298.474,372.195 293.474,376.861 288.5,381.5C 287.167,382.167 285.833,382.833 284.5,383.5C 283.833,383.5 283.167,383.5 282.5,383.5C 287.695,375.264 293.861,367.597 301,360.5C 302.411,358.35 303.245,356.016 303.5,353.5C 306.652,346.029 309.985,338.695 313.5,331.5C 316.755,326.732 320.255,322.065 324,317.5C 325.812,313.278 327.312,308.944 328.5,304.5C 329.833,309.5 329.833,314.5 328.5,319.5C 327.914,319.709 327.414,320.043 327,320.5C 326.109,326.732 324.609,332.732 322.5,338.5 Z"/></g>
<g><path style="opacity:0.011" fill="#07100e" d="M 265.5,291.5 C 266.5,291.5 267.5,291.5 268.5,291.5C 269.913,292.935 271.58,293.935 273.5,294.5C 272.167,294.5 270.833,294.5 269.5,294.5C 273.539,307.165 275.539,319.998 275.5,333C 274.311,341.272 272.478,349.439 270,357.5C 265.973,362.217 262.973,367.551 261,373.5C 255.744,377.045 251.244,381.379 247.5,386.5C 234.107,393.858 220.44,400.858 206.5,407.5C 204.667,406.948 203,406.115 201.5,405C 212.178,391.799 217.178,376.633 216.5,359.5C 216.2,342.298 213.033,325.631 207,309.5C 206.329,308.748 205.496,308.414 204.5,308.5C 205.5,307.833 206.5,307.167 207.5,306.5C 207.833,306.5 208.167,306.5 208.5,306.5C 211.728,316.179 214.728,325.846 217.5,335.5C 220.778,352.712 219.945,369.712 215,386.5C 212.254,392.642 209.587,398.642 207,404.5C 211.1,402.868 214.933,400.868 218.5,398.5C 218.833,398.5 219.167,398.5 219.5,398.5C 226.886,395.149 233.552,390.816 239.5,385.5C 246.521,380.479 252.521,374.479 257.5,367.5C 260.559,363.772 263.226,359.772 265.5,355.5C 268.266,353.2 270.099,350.2 271,346.5C 271.829,341.863 272.329,337.196 272.5,332.5C 272.756,325.776 272.423,319.109 271.5,312.5C 270.3,305.902 268.3,299.569 265.5,293.5C 265.5,292.833 265.5,292.167 265.5,291.5 Z"/></g>
<g><path style="opacity:0.241" fill="#10210f" d="M 272.5,332.5 C 272.329,337.196 271.829,341.863 271,346.5C 270.099,350.2 268.266,353.2 265.5,355.5C 268.768,348.005 271.101,340.338 272.5,332.5 Z"/></g>
<g><path style="opacity:0.149" fill="#060221" d="M 333.5,342.5 C 331.258,348.334 327.591,353.001 322.5,356.5C 315.846,361.987 309.346,367.653 303,373.5C 302.014,372.829 300.847,372.829 299.5,373.5C 301.252,371.754 302.585,369.754 303.5,367.5C 306.792,366.853 308.792,364.853 309.5,361.5C 315.626,357.898 319.46,352.564 321,345.5C 322.205,346.071 323.372,346.738 324.5,347.5C 323.41,348.609 323.41,349.609 324.5,350.5C 326.741,348.761 328.408,346.594 329.5,344C 330.745,343.209 332.078,342.709 333.5,342.5 Z"/></g>
<g><path style="opacity:0.007" fill="#000001" d="M 291.5,345.5 C 290.62,347.611 290.62,349.611 291.5,351.5C 285.5,359.675 279.667,368.008 274,376.5C 271.087,379.087 267.92,381.254 264.5,383C 263.833,384.333 263.167,385.667 262.5,387C 260.899,387.273 259.399,387.773 258,388.5C 256.676,392.482 254.842,396.149 252.5,399.5C 252.787,401.443 253.787,402.777 255.5,403.5C 252.113,403.284 250.113,401.45 249.5,398C 251.871,395.344 253.037,392.178 253,388.5C 256.358,385.43 259.191,381.93 261.5,378C 267.553,376.226 272.72,373.059 277,368.5C 282.371,361.073 287.204,353.407 291.5,345.5 Z"/></g>
<g><path style="opacity:0.996" fill="#93df6a" d="M 224.5,378.5 C 224.5,377.5 224.5,376.5 224.5,375.5C 223.5,375.5 222.5,375.5 221.5,375.5C 221.286,373.856 221.62,372.356 222.5,371C 221.846,362.402 221.18,353.902 220.5,345.5C 220.33,343.152 219.997,340.818 219.5,338.5C 219.36,336.97 218.693,335.97 217.5,335.5C 217.5,333.167 217.5,330.833 217.5,328.5C 217.037,325.518 216.704,322.518 216.5,319.5C 217.833,319.5 219.167,319.5 220.5,319.5C 220.643,322.097 221.477,324.431 223,326.5C 223.667,325.167 224.333,323.833 225,322.5C 226.674,327.213 228.34,331.88 230,336.5C 230.667,341.5 230.667,346.5 230,351.5C 228.467,356.944 227.3,362.444 226.5,368C 226.833,368.333 227.167,368.667 227.5,369C 225.294,371.209 224.96,373.709 226.5,376.5C 226.145,377.522 225.478,378.189 224.5,378.5 Z"/></g>
<g><path style="opacity:0.994" fill="#78d274" d="M 247.5,313.5 C 251.092,324.607 251.425,335.94 248.5,347.5C 247.522,349.532 246.022,351.198 244,352.5C 242.452,357.265 240.619,361.931 238.5,366.5C 235.203,366.671 234.869,366.005 237.5,364.5C 237.023,363.522 236.357,362.689 235.5,362C 236.834,358.041 236.334,354.207 234,350.5C 233.503,348.19 233.337,345.857 233.5,343.5C 235.045,344.23 235.878,345.563 236,347.5C 238.266,346.044 240.766,345.21 243.5,345C 244.126,344.25 244.626,343.416 245,342.5C 245.048,339.671 246.048,337.337 248,335.5C 248.582,328.148 248.415,320.815 247.5,313.5 Z"/></g>
<g><path style="opacity:0.976" fill="#96c583" d="M 270.5,312.5 C 270.833,312.5 271.167,312.5 271.5,312.5C 272.423,319.109 272.756,325.776 272.5,332.5C 271.101,340.338 268.768,348.005 265.5,355.5C 263.226,359.772 260.559,363.772 257.5,367.5C 257.343,366.127 257.51,364.793 258,363.5C 262.466,357.901 265.299,351.568 266.5,344.5C 267.891,342.04 269.058,339.374 270,336.5C 270.5,328.507 270.666,320.507 270.5,312.5 Z"/></g>
<g><path style="opacity:0.008" fill="#000001" d="M 322.5,356.5 C 317.024,362.816 311.691,369.316 306.5,376C 304.097,377.727 301.597,377.894 299,376.5C 297.697,376.978 296.531,377.645 295.5,378.5C 296.111,376.225 297.445,374.559 299.5,373.5C 300.847,372.829 302.014,372.829 303,373.5C 309.346,367.653 315.846,361.987 322.5,356.5 Z"/></g>
<g><path style="opacity:0.963" fill="#9045a9" d="M 167.5,332.5 C 167.665,335.518 167.498,338.518 167,341.5C 165.217,343.289 164.384,345.456 164.5,348C 164.608,349.681 165.275,350.848 166.5,351.5C 165.704,356.816 165.037,362.149 164.5,367.5C 163.833,368.833 163.167,370.167 162.5,371.5C 162.5,370.167 162.5,368.833 162.5,367.5C 162.245,357.758 162.911,348.092 164.5,338.5C 165.404,337.791 165.737,336.791 165.5,335.5C 166.167,334.5 166.833,333.5 167.5,332.5 Z"/></g>
<g><path style="opacity:0.007" fill="#000000" d="M 154.5,366.5 C 155.666,372.122 157.166,377.789 159,383.5C 161.376,386.352 164.209,387.018 167.5,385.5C 165.176,389.113 162.343,389.447 159,386.5C 155.895,380.211 154.395,373.545 154.5,366.5 Z"/></g>
<g><path style="opacity:0.835" fill="#6c457d" d="M 164.5,367.5 C 164.5,369.5 164.5,371.5 164.5,373.5C 164.662,375.527 164.495,377.527 164,379.5C 163.178,376.883 162.678,374.216 162.5,371.5C 163.167,370.167 163.833,368.833 164.5,367.5 Z"/></g>
<g><path style="opacity:0.996" fill="#7d20ad" d="M 303.5,353.5 C 303.245,356.016 302.411,358.35 301,360.5C 293.861,367.597 287.695,375.264 282.5,383.5C 278.596,386.948 274.263,389.614 269.5,391.5C 269.5,390.167 269.5,388.833 269.5,387.5C 278.271,383.721 283.271,377.054 284.5,367.5C 284.833,367.5 285.167,367.5 285.5,367.5C 287.796,365.599 289.629,363.266 291,360.5C 290.97,356.558 292.47,353.558 295.5,351.5C 296.375,349.432 297.541,347.432 299,345.5C 300.08,347.553 300.914,349.72 301.5,352C 301.167,352.333 300.833,352.667 300.5,353C 301.448,353.483 302.448,353.649 303.5,353.5 Z"/></g>
<g><path style="opacity:0.929" fill="#9ac984" d="M 217.5,335.5 C 218.693,335.97 219.36,336.97 219.5,338.5C 219.997,340.818 220.33,343.152 220.5,345.5C 221.328,359.702 220.161,373.702 217,387.5C 215.071,391.123 213.237,394.79 211.5,398.5C 213.718,399.057 216.051,399.057 218.5,398.5C 214.933,400.868 211.1,402.868 207,404.5C 209.587,398.642 212.254,392.642 215,386.5C 219.945,369.712 220.778,352.712 217.5,335.5 Z"/></g>
<g><path style="opacity:0.995" fill="#88da71" d="M 215.5,304.5 C 216.594,306.359 217.427,308.359 218,310.5C 220.25,311.708 222.417,313.041 224.5,314.5C 229.306,323.587 232.306,333.254 233.5,343.5C 233.337,345.857 233.503,348.19 234,350.5C 236.334,354.207 236.834,358.041 235.5,362C 236.357,362.689 237.023,363.522 237.5,364.5C 234.869,366.005 235.203,366.671 238.5,366.5C 240.619,361.931 242.452,357.265 244,352.5C 246.022,351.198 247.522,349.532 248.5,347.5C 246.092,352.08 244.425,357.08 243.5,362.5C 241.585,366.251 239.085,369.585 236,372.5C 235.167,374.5 234.333,376.5 233.5,378.5C 232.026,379.436 231.026,380.77 230.5,382.5C 228.604,383.466 226.604,383.799 224.5,383.5C 224.357,385.262 224.691,386.929 225.5,388.5C 223.51,389.498 221.51,390.498 219.5,391.5C 219.167,391 218.833,390.5 218.5,390C 220.99,386.431 222.99,382.598 224.5,378.5C 225.478,378.189 226.145,377.522 226.5,376.5C 224.96,373.709 225.294,371.209 227.5,369C 227.167,368.667 226.833,368.333 226.5,368C 227.3,362.444 228.467,356.944 230,351.5C 230.667,346.5 230.667,341.5 230,336.5C 228.34,331.88 226.674,327.213 225,322.5C 224.333,323.833 223.667,325.167 223,326.5C 221.477,324.431 220.643,322.097 220.5,319.5C 219.167,319.5 217.833,319.5 216.5,319.5C 216.704,322.518 217.037,325.518 217.5,328.5C 214.712,321.684 212.712,314.517 211.5,307C 212.032,304.98 213.365,304.147 215.5,304.5 Z"/></g>
<g><path style="opacity:0.627" fill="#260949" d="M 287.5,361.5 C 286.833,363.5 286.167,365.5 285.5,367.5C 285.167,367.5 284.833,367.5 284.5,367.5C 282.933,368.681 282.099,370.347 282,372.5C 279.715,375.432 277.215,378.098 274.5,380.5C 276.158,377.206 278.324,374.206 281,371.5C 281.812,367.206 283.979,363.872 287.5,361.5 Z"/></g>
<g><path style="opacity:0.075" fill="#06011e" d="M 154.5,338.5 C 154.123,343.453 154.789,348.119 156.5,352.5C 156.183,355.572 156.516,358.572 157.5,361.5C 158.167,360.833 158.833,360.167 159.5,359.5C 160.272,366.706 161.272,373.873 162.5,381C 161.178,383.52 161.845,384.02 164.5,382.5C 165.32,378.369 166.32,374.369 167.5,370.5C 168.478,373.803 169.145,377.303 169.5,381C 169.693,383.008 169.026,384.508 167.5,385.5C 164.209,387.018 161.376,386.352 159,383.5C 157.166,377.789 155.666,372.122 154.5,366.5C 153.184,357.068 153.184,347.735 154.5,338.5 Z"/></g>
<g><path style="opacity:0.996" fill="#77309c" d="M 284.5,367.5 C 283.271,377.054 278.271,383.721 269.5,387.5C 269.5,388.833 269.5,390.167 269.5,391.5C 274.263,389.614 278.596,386.948 282.5,383.5C 283.167,383.5 283.833,383.5 284.5,383.5C 284.167,384.167 283.833,384.833 283.5,385.5C 279.808,387.344 276.475,389.677 273.5,392.5C 268.643,395.269 263.643,397.435 258.5,399C 264.072,392.936 269.405,386.769 274.5,380.5C 277.215,378.098 279.715,375.432 282,372.5C 282.099,370.347 282.933,368.681 284.5,367.5 Z"/></g>
<g><path style="opacity:0.592" fill="#14072f" d="M 163.5,330.5 C 165.256,331.552 165.923,333.219 165.5,335.5C 165.737,336.791 165.404,337.791 164.5,338.5C 162.836,339.949 162.002,341.949 162,344.5C 161.178,352.345 161.344,360.011 162.5,367.5C 162.5,368.833 162.5,370.167 162.5,371.5C 162.678,374.216 163.178,376.883 164,379.5C 164.495,377.527 164.662,375.527 164.5,373.5C 165.687,371.928 166.687,370.261 167.5,368.5C 167.5,369.167 167.5,369.833 167.5,370.5C 166.32,374.369 165.32,378.369 164.5,382.5C 161.845,384.02 161.178,383.52 162.5,381C 161.272,373.873 160.272,366.706 159.5,359.5C 158.833,360.167 158.167,360.833 157.5,361.5C 156.516,358.572 156.183,355.572 156.5,352.5C 157.421,352.93 157.921,354.264 158,356.5C 159.186,350.915 159.852,345.249 160,339.5C 162.092,336.917 163.259,333.917 163.5,330.5 Z"/></g>
<g><path style="opacity:0.247" fill="#350552" d="M 288.5,381.5 C 287.461,383.531 285.795,384.864 283.5,385.5C 283.833,384.833 284.167,384.167 284.5,383.5C 285.833,382.833 287.167,382.167 288.5,381.5 Z"/></g>
<g><path style="opacity:0.969" fill="#97c981" d="M 239.5,385.5 C 233.552,390.816 226.886,395.149 219.5,398.5C 221.146,396.139 223.146,393.972 225.5,392C 229.337,390.827 232.671,388.827 235.5,386C 236.793,385.51 238.127,385.343 239.5,385.5 Z"/></g>
<g><path style="opacity:0.129" fill="#1c0437" d="M 303.5,367.5 C 302.585,369.754 301.252,371.754 299.5,373.5C 297.445,374.559 296.111,376.225 295.5,378.5C 289.753,383.907 283.42,388.573 276.5,392.5C 275.5,392.5 274.5,392.5 273.5,392.5C 276.475,389.677 279.808,387.344 283.5,385.5C 285.795,384.864 287.461,383.531 288.5,381.5C 293.474,376.861 298.474,372.195 303.5,367.5 Z"/></g>
<g><path style="opacity:0.321" fill="#0e0329" d="M 291.5,351.5 C 291.13,355.289 289.797,358.622 287.5,361.5C 283.979,363.872 281.812,367.206 281,371.5C 278.324,374.206 276.158,377.206 274.5,380.5C 269.405,386.769 264.072,392.936 258.5,399C 263.643,397.435 268.643,395.269 273.5,392.5C 274.5,392.5 275.5,392.5 276.5,392.5C 270.206,397.481 263.206,401.147 255.5,403.5C 253.787,402.777 252.787,401.443 252.5,399.5C 254.842,396.149 256.676,392.482 258,388.5C 259.399,387.773 260.899,387.273 262.5,387C 263.167,385.667 263.833,384.333 264.5,383C 267.92,381.254 271.087,379.087 274,376.5C 279.667,368.008 285.5,359.675 291.5,351.5 Z"/></g>
</svg>
